<mxfile host="app.diagrams.net" modified="2023-11-08T19:11:03.088Z" agent="Mozilla/5.0 (Windows NT 10.0; Win64; x64) AppleWebKit/537.36 (KHTML, like Gecko) Chrome/119.0.0.0 Safari/537.36 Edg/119.0.0.0" etag="lRug-eFG8GOm7JeixUqM" version="22.0.8" type="device">
  <diagram name="Page-1" id="Q5WflglCz1kRLDAMco8h">
    <mxGraphModel dx="2528" dy="924" grid="0" gridSize="10" guides="1" tooltips="1" connect="1" arrows="1" fold="1" page="1" pageScale="1" pageWidth="850" pageHeight="1100" math="0" shadow="0">
      <root>
        <mxCell id="0" />
        <mxCell id="1" parent="0" />
        <mxCell id="i4hqYP4whVOMsoO-DvEu-35" value="" style="group" vertex="1" connectable="0" parent="1">
          <mxGeometry x="-330" y="233" width="1185" height="718.9999267578125" as="geometry" />
        </mxCell>
        <mxCell id="i4hqYP4whVOMsoO-DvEu-10" value="" style="group" vertex="1" connectable="0" parent="i4hqYP4whVOMsoO-DvEu-35">
          <mxGeometry x="670" y="11" width="250" height="330" as="geometry" />
        </mxCell>
        <mxCell id="i4hqYP4whVOMsoO-DvEu-7" value="" style="rounded=0;whiteSpace=wrap;html=1;" vertex="1" parent="i4hqYP4whVOMsoO-DvEu-10">
          <mxGeometry width="250" height="330" as="geometry" />
        </mxCell>
        <mxCell id="i4hqYP4whVOMsoO-DvEu-9" value="" style="shape=image;verticalLabelPosition=bottom;labelBackgroundColor=default;verticalAlign=top;aspect=fixed;imageAspect=0;image=https://upload.wikimedia.org/wikipedia/commons/thumb/c/cd/Apache_Solr_logo.svg/512px-Apache_Solr_logo.svg.png;" vertex="1" parent="i4hqYP4whVOMsoO-DvEu-10">
          <mxGeometry x="188" y="291.8073529411765" width="62" height="31.48" as="geometry" />
        </mxCell>
        <mxCell id="i4hqYP4whVOMsoO-DvEu-4" value="Computed index field&lt;br&gt;&lt;br&gt;fieldname :&amp;nbsp;GlobalSearchContent" style="rounded=1;whiteSpace=wrap;html=1;fillColor=#dae8fc;strokeColor=#6c8ebf;" vertex="1" parent="i4hqYP4whVOMsoO-DvEu-10">
          <mxGeometry x="25" y="11.264705882352942" width="200" height="72.79411764705883" as="geometry" />
        </mxCell>
        <mxCell id="i4hqYP4whVOMsoO-DvEu-11" value="" style="shape=card;whiteSpace=wrap;html=1;fillColor=#f5f5f5;fontColor=#333333;strokeColor=#666666;" vertex="1" parent="i4hqYP4whVOMsoO-DvEu-10">
          <mxGeometry x="30" y="111" width="190" height="190" as="geometry" />
        </mxCell>
        <mxCell id="i4hqYP4whVOMsoO-DvEu-12" value="Index value for home page" style="text;html=1;strokeColor=none;fillColor=none;align=center;verticalAlign=middle;whiteSpace=wrap;rounded=0;" vertex="1" parent="i4hqYP4whVOMsoO-DvEu-10">
          <mxGeometry x="64" y="117" width="120" height="30" as="geometry" />
        </mxCell>
        <mxCell id="i4hqYP4whVOMsoO-DvEu-13" value="Field Name : GlobalSearchContent&lt;br&gt;&lt;br&gt;Value : All of its subcomponent text value.&lt;br&gt;(Header + HeroBanner + ContentBlock-1)" style="rounded=1;whiteSpace=wrap;html=1;align=left;" vertex="1" parent="i4hqYP4whVOMsoO-DvEu-10">
          <mxGeometry x="40" y="151" width="170" height="140" as="geometry" />
        </mxCell>
        <mxCell id="i4hqYP4whVOMsoO-DvEu-14" value="" style="endArrow=classic;html=1;rounded=0;entryX=0.5;entryY=0;entryDx=0;entryDy=0;strokeColor=#0DA2D3;" edge="1" parent="i4hqYP4whVOMsoO-DvEu-10" target="i4hqYP4whVOMsoO-DvEu-12">
          <mxGeometry width="50" height="50" relative="1" as="geometry">
            <mxPoint x="125" y="84" as="sourcePoint" />
            <mxPoint x="170" y="40" as="targetPoint" />
          </mxGeometry>
        </mxCell>
        <mxCell id="i4hqYP4whVOMsoO-DvEu-30" value="" style="shape=image;verticalLabelPosition=bottom;labelBackgroundColor=default;verticalAlign=top;aspect=fixed;imageAspect=0;image=data:image/png,iVBORw0KGgoAAAANSUhEUgAAAdsAAAEdCAYAAABEy82dAAAAAXNSR0IArs4c6QAAAARnQU1BAACxjwv8YQUAAAAJcEhZcwAADsMAAA7DAcdvqGQAAABhaVRYdFNuaXBNZXRhZGF0YQAAAAAAeyJjbGlwUG9pbnRzIjpbeyJ4IjowLCJ5IjowfSx7IngiOjQ3NSwieSI6MH0seyJ4Ijo0NzUsInkiOjI4NX0seyJ4IjowLCJ5IjoyODV9XX3nzUtkAAA/UUlEQVR4Xu3dC3SU5bk2/itQRSpYQISAklVOW6giSTRsDtUKsiBYAlrALj7/Au7PiBgohJaCuv0idVVB/QhsEv0gdZdDlVWRNhAMwRYU1g4gkSRIY1ASYCVKEo0BEeRkyP+5n3nemXeSmRxnwszk+rle3/NhJmSuuZ/nnUlYjQIiClrV1dVmqunKysrQuXNnfPfdd3pMRP7RzoyJiIjITxi2REREfsawJSIi8jOGLRERkZ8xbImIiPyMYUtERORnDFsiIiI/C7nP2S5btgyXLl0yc3V16NABS5YsMXNEwY+fsyUKfCFX2UrQJiUl6WlP4/qCmIiIyB/YjNyAixcv4vnnn0dsbKxziI+Px+nTp80W/ifXIBX78ePHzRLg0KFDda5j69atWL16tZnzTLaRgYiIWk9Ihu3SpUvrHTfVjTfeiNdffx1ZWVl6eOaZZ7Bo0SK38POnG264QV/DkSNHzBJg3759KC0tdbuGkpISjBw50sz5jpxj4cKFrfoGg4golAR82IaFhZmpxquvGdkX+vXrh7i4OLz33ntmif9JiEqYCql0xW9/+1t88cUXelqC8MSJE+jataue9yV5vCtWrNDHlnNv2rTJeQ1ERNSwgL5BygraplyiVK8Sqg2NG0tCZeXKlXjkkUd06Fik2nvnnXewYMECXXlKs+5zzz2n1/Xp0wevvPKKDidpsv3+++/x97//HWfPntXrnnrqKSxfvlzP33TTTbqJ2Dq2NANbIW4/jv18p06d0tOTJk3Ctm3b3JY15noKCwuRm5tb5/zyWP/4xz8iJyfHbT8Jcjn2rFmzdJO6VNQiJiZGn0POLTedeXo85H++ukHqmwm/MEtdXvrZPWaKiFoiYMPWXtE2NWztfvzjH+Puu+9Gu3auIv7+++83Uw3zFrYSQFLtWc2r9qCzB+POnTvx8ccf61CSdRJ2teelYp03b56zL3Xy5Ml6LIGZnp7uDE3rOqzm5PHjxzuXyTVI07Icp/YbgfquR9alpKToEJVpqZSt81vs+1+4cAF/+ctfdH+x7G9/HiTMa8+T//kqbC+NG2WWuiREDDZTRNQSAdmM3JymYzurcpWxBO3Bgwexd+9e7NmzR48lkP/whz84x1KJNZWEivSjduzYUYffhx9+iIceekjfQPX000+juLhYB5O45557dDCJ2267rc68kFCXinPIkCF6XljhLseR7eV8ct7Kykq9nSwbPHiwPr8ErdVf25Tr6d27N3r06KGPK+fbvn27Dm8J2MaQ7aQSnj59uj6XjD/77DN9PCIicgi4sG1p0NYmFa183Of5//N/9LyncXM+DiSBJuFnhdacOXOcN1DJkJaW5vPKTsJUKt2TJ086jy1hLSEt7JV3c65H1st2GzZswJ///OdG33X9y1/+0u1cUgWzGZmIyCWgwtZXQWs1JdublGuuXq133BTSvPvWW2/pkBFSZUrV3JJqzl6lWqzqUqpnIWEoVaNUolZwSqidP39eD9Z2DV2PNCNbNzhJf6uQCtci1yLNzP379/d4jK+++spZJcv55casxlbCRERtUUCFrfTNehqayt6MbHnxxRfrHddHgkyaYq3P2Up1KdWfVb3J+NFHH3U2pcrQ0OddPZG+Uum/tZ/H6lsVEoi33347IiIi9LyQ0JXwlaC2tmvoen72s59hxowZernc2CTNxrKvvImwtpcmaKncrcdosc4nx5Z+Xgn4uXPn6uNY+8pyK8yJiCiAb5BqLqlmJWStsfRdSpVnLfvVrHn418kq3PnTbvjbutVu2xIFI94gRRT4AvIGqZaymo+tsZ0E7aa9xXpMRETUGkIybD3xFLzC23IiIiJfCblmZKK2hs3IRIGvzVS2RERE1wrDloiIyM8YtkRERH7GsCUiH5iCZe9m4d3lU8y8w5Tl7yLr3WVqrZ8tXOv2LWZ6SEs0K4OF5+fQF6YsTHT+DBLTgvG5CX4MWyIKESXYab5YJfb9EqDPeKxdaFa1aYkYP248pvshxKnxGLZEFHpWFKroBbr1DNGAkUq+0S0GyXhSvQGZuniLmadrgWFLRK3nV8vwrq2p19Vkmoi1We9i2a9kLOvWqiWK1+0bsHAwInAORR+ZgKl1HHtQ6abutERH82qd85jrWmjf31ybpVYTtlVNW8fVY7Xc47Xb902LMQstjmZl53pzzfp44yKATpGI1/s5rsZ+/TK4qnrHc+q5yreeb2uo9djIZxi2ROQznYbG2164sxA/tJNZo0jgPRmJqvdNU+/afGDodBWwZj06IfLJUahaK+ufRLLZHofTbNvH1xO4ERhvnVuFUcn7U7Hkb2bV33KwSR9XhjTkI9K9WbXPeAwudKxPO3xOPY5a1zUS2KT33akqZnUeq89TwnJcN+Rbx35frR1nCyx13Phu2XpdncpSHp+6znPW4yvshkjn0yVBG4/I0zsd62zXvGXxVH2NOJePNFkXn6z3SN6R5piXofZ1eJGYNh4R1nH0oJ53s458i2FLRD7jDA4z6FCw/LSbii0VieNMIKog7aT+6/ZTx2px7vAmV0Dq7UuQbYXU35Ygu1RFXzfXH+JwZ+uzVaEIOY8Vir+KwfQnzXmzVIjZ3gNoKnB2rnBMbvmoSNXE7kr2LYHjKpJRqK7BMqVnN/V/eZNgji0VJ7qhpzOo1TWZMKyj9uNbsRP5zhNHoJtcowpr+zV7f+wqOCfEOypd53U0LLmwRB3UUSGzf9u/GLZE1IrsgegYnjQhJ6oqalV/zWZCsWtPVSOqKvF/qWAvtVWJtdO0JdwqQxlsFfW5KvWIm6/EagWwBm/BrSrs8X3OuVXYjbLiScf2a/PRTb8JYjOyvzBsiah16JuWbE2w4lcShV6Y7UdZzb2/WoZRfSS/GhEk1rbFOaoidVSJzv1UlTugdmXbTLoKVpWhW5N0fY/J7mSVqqBtj2/heFvF7Xiz4N4UrI7rrJiVTt3U3g6OCrsKFSbkEwc3rrJNXGiO/rclmKoC95xbVU6+xLAlolaSjCflBd3ZNKqGJ8c7A6Mux/bST+vY1tF/6/2uWlufrTRRq0rWsa06jqr0nP3J/wvItjdvt4SElP3Y+vi1b3Tyova+gwux09ZEnRwvFbjtMWXFY7xpcnc0dZt16s3LlsWb3LYdXCh9y40w2P6zkOfX1oxPPsU/RFDLn/70J3z55ZdmrnFuvfVWPPHEE2aOqHXxDxEQBT5WtrU0NWhFfftcvHgRzz//vFu/S3x8PE6fPm228D+5hmXLluH48eNmCXDo0KE617F161asXr3azHkm28hAIebKFTNBRP7AsG0FN954I15//XVnc80zzzyDRYsWuYWfP91www36Go4cOWKWAPv27UNpaanbNZSUlGDkyJFmznfkHAsXLmzVNxjURNddZyaIyB9Cvhk5LCwMTXmI8sfkk5KSzJxLTfUlPQ5r30GP7bztI6SqXLlyJR555BH069fPLHVUiBJu8+bNM0v8SypZCVg5n1xTWloaBg0ahO+//x6TJ0/WQfjiiy9i7ty5btdZm1XVyj7NIef++9//jocffli/CaCWYzMyUeAL6cpWgtZXvi/9px58ZciQITh//rwOHyFh6KmZWcJt06ZNOqytdbKtNS9je3UqzcCejtO1a1fn+U6dOqWnpa+5sLBQL5PtevTogd69e+vtvV2PkH08nV+OY28yt/aT9dKMXV5ersN+/fr1eOihh/S2so+s9/Z4iIhCQciGrS+DFjVXceV0oR5k2hes8Ltw4YIOl3/84x9IT093NjOvWbPGGcSffvopNmzYoNdNnDhRb2fNP/roo3jvvff0dhLMERERzubqp556CitWrNDHsUJUglaakwcPHuysYGWZhKI0NUu12dD1yHVb55cQTUlJ0fsXFBTgnnvucZ5fqmd5nJYuXbrglVdewS9/+Ut9bKmk5fH/+c9/1seXfWQs8/ZwJyIKdiEZtr4K2ktfHULVR0moOvgHXL38nR5kWpbJupawwq1jx446/D788ENd7Ul19/TTT6O4uFgHkZAAs5pcb7vttjrzQoJQKk6pmC1WmMpxrH5bOW9lZaXeTpZJ6Mr5pYnZ6q9tyvVIiEtFLMeV823fvr1J1alsl5OTg+nTp+tzyfizzz5j2BJRSAm5sPVlRduhRzQ63vaAHNQsUdS0LJN1LSGBZlWSYs6cOc6K0FNV6AsSplJRnjx50nlsCWsJaWHvq23O9ch62U6qXqlOazc/eyOVrv1c77zzTr39xkREwSakwtanTceaCtZb78OPbuxl5qGnZZmsay7pD33rrbd0yAipMvfs2dOias5epVqs6lKqZyFhKFWjVKJWcEqoSbOwDNZ2DV3Pxx9/7GxSliZoYTVTC7mW5557Dv379/d4jK+++spZJcv5T5w40ehKmIgoGIVU2Mpdx56GlrjybTF+OPclru86WA8yLcuaQoJMmmKlmVQGq8/Vqt5kLH2vVlOqDA193tUTuUNY7nC2n0dCz97ke/vtt+t+XYuEroSvBLW1XUPX87Of/QwzZszQy5csWaKbjWVf+01V0gQtlbv1GC3W+eTYcoOUBLzcAS3Hsfa1bpwiIgoV/AapWmp/jOdSZb6kODrcEuWY/zpPNyV36B6p50V9H/0h8jd+9Ico8DFsa5G7ay9dcnymtrE6dOigKzOia4FhSxT4GLZEQY5hSxT4QvZztkTUNNVhYTjZoSP2du6Kv3TrhZfD+5o1RNRSrGyJgpyvKttvv/3WLCUiX2PYEgU5X4WtjInIP9iMTERE5GcMWyIiIj9j2BIREfkZw5aIiMjPGLZERER+xrAlIiLyM4YtERGRnzFsiYiI/Ixh2wrke0OufrsWOPYbs4SIiNoSfoOUj83dAVzf3vWUXjjzDS5/X4k3H94FfPUZ5hb9F1ImmJVEPsBvkCIKfKxsfUiCtn3YVVyuDsPlKzV6fKVa5vk0ExG1ZUwBH6tGmGOinXlqrbEyt2iVmWq806dP4/nnn9djIiIKTgxbH9LNwzVhKm5r1Piqc9xODQ4miImIqE1h2DYgLKxpASmBu3JcDVaNd4zXTOuO//6PgWYtERG1RQzbejQ1aC3t27dzG9qFuZ7mleOadzPLihUrEBsbqwdpVr548aJeLmOZ97Ru69at2LRpEx555BG9Lj4+HocOHXLOy/j48eN6WyHrrOPItmy6JiLyDd6N7IU9aFv6FMX/82Wkxdyk70aecLQdfvTj63F9lx+btcCany1A945dzJw7Cbzf//73eOqpp3D33XfrZatXr8bIkSP1vH1aSMCWlJRg3rx5evrjjz/Gc889hxtuuMHjvLWthO4777yDBQsW6HW15ylw8W5kosDHytaD5la03txwXQczpYL7BxPcVjeuGs/+dCUuV18xC+oKDw9Hv379zBwQERGhxxLEX331ldu6IUOG4Pz5887q9p577nGG5W233VZn3nLkyBF8+OGHeOihh3Rl+/TTT6O4uBgXLlwwWxARUXMxbGvxddCKU53OYs7Jb/R0TZgJW+uZN+Pp+X90TFxDc+bMQVZWlnNIS0tD165dzVoiImouhq2NP4LW8tVlRykbVmPOYatsxeboJMdEE0gQ9ujRw63fVSrUG2+8sclNv1IR79mzh/20RER+wLC1kb5ZT4NPmGc67EcmbG2V7Vt3PYN2zQx6uZEpPT3deWOT1QfbVNIU/eijj2L69OnOY0l/MBERtRxvkGol/ztvKd7s9A0w8L/MEiLf4A1SRIGPlW0rkPczb/brbuaIiKitYdgSUQt9jW3z+qN//7rD0xlfm228yUVq/1T1f6LQxrAloha6BZNWF+uPihVnJ2P8g8k4INNqeD3uFnyd8TT6r2acUtvGsG0F+i7nnySwv5ZaTXZ2Nt58800kJyfrscxfK7fEvY7iedFmTlXBq7ep/xO1LQxbohCzefNmHDx4EGfPntXzMpZ5WX4tSGXraE6WJuPhSFyZiOHSzDzPQ+iWb8PTzmbop7Gt3CzPS3WfJwoyDFuiECIV7BdffGHm3Mnya1nhAtFIKN6MhVYz8+pJuMWscVBhPKoUT5gm6OLiJ1A6yvTnRj2C5JVPYFK43pAo6DBsiULI0aNHzZRnDa2/pvL2Y4X6b5qzsp2m5grwha5mb8GkOKspmij4MGyJQojVdOxNQ+uvuQWbTVVrDa+zmqWQwLAlotaVWYpSM+kmagQWrvyTl37Zr5Gbx9uqKHgxbImoFUVjxALTVFznBqloJGTHImuU1Yxs2ybvHUybmsQbpCho8esaiYKc/esa5aM+DUlMTDRT/LpGotbCypaIiMjPGLZBYvKLO/VARETBh2EbJKStn+39RETBiWEb4N7I/BRFZa6Pa8i0LCMiouDBsA1Qly9fxoULF3Dw86+x9O1DZinwnxtzkHe8EpcuXTJLiIgo0DFsA8z58+fx7rvv4rXXXtMf6v/Do3fj3MUrZi1w8XI1np0WhXPnzmHXrl2B/yUFRETEsA0kV69excaNG1FQUIArV65gy5Yt+LbiJJY//u9o3y4M7cLCsGzWMIT/5DocOXJEf8+tBC4REQU2fs7Wz+TP6zX2KU5PT8fhw4f19L333qv/Uos0F0+ZMgXo3BtX1WFuwlld+coH/ocOHYqsrCyMHDkSkZGRej+PTmViVVoOzuiZLoiJn48He+sZHypH5qo1yHGcRJ0mBrPnPwh+057/8XO2RIGPYetH+u/YKo19il999VXcdNNNKC8vR1JSku6zPXDgAD766CNEREToJuMuXbroYB00aJDeJzc3F/v370dCQoKe9yh3A1ZVjMP8CSr6JHh39cL8x6LMSl+QoP0rMM0fId56yndsQO7QGUH3GBi2RIGPYesnVtCKxj7F33zzDW6++WYsXbpUh61FQveVV17BsGHDMGHCBL3szJkzuhlZmpyjo6MxduxYvdyTvI2rUPaACUJb8JbvWIU1B6UU7YuYYWqkgyYPG5ZuwwnZUZgKFc5t1dZxSZhh/wMs9jB3Y692bRW12n5DAXDiuJylLybFd8deU3k7j+22jfvypRnm6vpNQpJ+06DOs1H+EFsOco6rka2qdj1G6xiety3buBTbZF7pGzcJyLCeA3V9STPgy7cmvsawJQp87LP1A3vQNoUErScdO3bUY2lilnDdtm0b0tLSUFVVpYO4vqCVICqrOoOctKU6xJcWDHGEogqtNZX36VBPShqCyoNALxWEeRv3onu8LEvCpH4qaCS07NvG9cXpCvcvqM0rOI2BQ+s2GOdtlGrXcayk+IE4tivPsbzghAqyIXr57GGnsW0z8Otax7ZvkxQfg9MFal+pytX162VqmIS9yDylNj6Vi2PHc1B5hyyfjRhUokwO4um6vWwb9UAMukh4q21n4AhOD5vt2C/Ag5aIggPD1seaG7SN0bVrV7z33nu6Alm0aBEee+wxs6Y+Zajs5ggRPZjmYwnImAdMjJwqw+l+Q3SoRN3R1RnMe7uP08sk+HB8m3tYO0mYm0k3eThSNRDRdZpkZXsV4uY6yiqBmGmmCq04ja499ZTbNihXG3XvhfLDx9D1DrPMTtarcHRU2+rxojt6qSmP1+1lW+scWvQM/Bp/VfttUI+CiKjlGLY+5MuglWa92mbPnq0DdvTo0frGKal0e/duoIMxV1VpVoh4VI7MzTkmaNR0QXfMNsHsClVpAnYPa5dw9Op2BpUN/DWWvF05JihtASehCiuQy5H7eVcMqR2CisfKWVW5e02Yu0JaUY/3RLde5sasutftbVu35Ur4hPmqou6OvRsZt0TUcmHssw08O3bswL/+9S8MGTIEo0aN0pWs1Y8rIZuTk4N9+/ahX79+eOCBB3TF6430Wb7fc76p5GycfZ9d0LefGt2htgm337Ws1qgKUAeu/W5mj3cZ2/tmXfvZ+0udx1Ln9XyzVh42rCrDONNsvapALTp+Qp/Tua9s4+xPtvpS5dzvo9d8R3Ov2+Otc93RyPWyrXWtXYb9Al0P7jHn8Ned274VCH228vlw6db44YcfzBIismPYBih58ZMboD755BPcdddd+o7kESNGID8/X4fsfffdhx49epitfcEWdtb8RmBGnUrW/7y+QSCPAiFsT548ifDwcLRv394sISI7hm2As0JXQnbgwIE6ZG+55Raz1rfybHfkXruqzr1SpYYFQtgWFRXhzjvvxHXXXWeWEJEdw5YoyAVK2EZFRaFdO94GQuQJfzOIiIj8jGFLRETkZwxbIiIiP2PYEhER+RnDloiIyM8YtkRERH7GsCUiIvIzhi0REZGfMWyJiIj8jGFLRNdIOTIWJCKjwsxaclMRm5JvZvykIgOJCzLUFQS+8q2JiI2NrTs04vrzU2KRmmtmGkue/yaex7fk34Xt/HpIhZ//Rfgdw5aIKICFT05GVlaWGtYhYdBgJKyXaTWsjEO4iqDUWA9vWJpL3oQ8CyzT57Ofp7XZHqcM6yOw3peP8xpg2BIRBa1IJGQlI66nYy4/pYUV4JclKBwUcQ3CtQE947B4DpC6OXjrW4ZtCJK/fVvf8PLLL+u/JEQUFNyaNV1hIs2rqblS2clyV9UjTaeNa34swRZbc2XiVltjaa2mVOc6qfxSMtybOW1N3vkp6jq22vd1r8bcrq32frnq2HpdUwJTHr9s72h6XbI9A0u8HsO9edbt8VqiRyHuaCqWe1pXp+nd3g2grkOty/Dy+ERLH3v48DEYXFTqOP81vpbmYNiGKPlD856GJUuW4PLly/j444+xZ88eszXRtVKI1Jm2Fz4Zns0w6xR5Ud0QgXX25kTbi2zGs9kYpdc5qjsJ4PV91rmaH18Clri9KNscLULEM2a7rHUY88EsV/9mdILrGFnLMOCNLa4X3u27Adt+CUXrbYGqHk/pKNe+Lw1wVmO1r21dn/W2wFP7bQAW63UJql5tqnDErZRm5jjTBFz3GPkps1Ayw1yXGmaW2h6vk1TKjnW1g6hBKqRLRrqOvwxLnI/PJ4+9Zx8MOFri+WdZm7+vpRkYtm1Mhw4d9HjmzJn6b+Q2usKtfdNEQPefWNWObbC94Movm+uXq+maur/jXbRv3yWHjlp9czK8FGfWqef6wG4UqhfOWdbPcWaqmne94A6eM8X2gliOnA+AMcNtjaC6UvPyAj1oDGJM86uEVczowSgqNVtKyDv//SyBLf7r7NdngJk04kbaXqJvjVCPUMi1FaLwDRNiapj1hpq3zqfEzfBn36j6Xd8ub06sxyRVMFyPt5bIuY6fhQRR42+QisOoaDOpRI6MM4/PR4+9ohRFjW7i9vO1NAPDto1atWoVzpw5g71795ol9ZCgrX3ThK2fKDBZ7/Adw7IBXprG/MoR+tkjpeIwi6jJBs+xVap68G3FUZf6uc0swUzn+Zapf02+4OGNxVz/PhJ37r8TMiRPrj9WwifP9P5mpUla/tj1G68BfXwQhNfm58CwbYNqNynXT73wPFuk/nH64QVOhXiTP5bgiapCUhsIUtc729bkaJJLsL3DpqaRfjrYm3DrJdUpsPuA7eecm40Mb9XQ0d3IcbbO2KpiqaDMUk2OYSabz3Ft/r/BpwilHlucIjFqYgbWN/UNZ33PX0UOdh8101oGsm2/z/n7MkyV74PHrl4rZr0BJEzz8irUmtfSTAzbNsxqUq6XbrqxN5vV5fWGFGmK83IziTTFSt+c1axlhW69Ny54uvFEqu6ZqcgwzULemnddv2x1eb1+4dZ87qHp3DQ3+uRNA9XVMw7J0u/q/BmooZ5+RPmYjLO/UQbp7/X20ZWJKshfto47C7tHL4ZurVHnnKmCyXnOfRE+aZmQa5O+Q+e1qcG3/25MkOg+8LrdFpFzHf3SrvN7+Pfs9u9dDdKiZT1/8rwMsDXpv6zenEzUexmq/t/n2neJerTWG82mP/Zaffm6397Wmtaq1+IjNRRyXnjhBTPlsH//fjPlPi1qb1vHoZSa8fO31ZSZ2drK0hfULEi3rbVvX76tZsH4BTXbyvUapaxm23zXvOybcsgxLWofyz6ft3p8zfjVeXpak/NY82ra7Rpq8mpSxqvtbYO38zR8/SnqaO6c+3hZX5c87sZs1zw//PCDc3j11VcbHOzbl5aW1pw5c8Y5bu7w8ccf11RXV5srorZHfuf892+8aQLpWlxY2Ya49PR07Ny5E1evXtWDTMuyRnPe4OFJI25IaeBmEpdG3Ljg8cYTb9z7p0bJu9w6FVH91y99RHC7AcemdAsSdb+eq3ndVSEH8s1jRHQtMGxD2NatW3H48GHMnz8f7dq104NMyzJZ1yj6dnt735Y/+e/GhchpCRi8PbuRfX8NKyyKwMw5RVhiC3DrDs7Av3mMiFobw7aN+v77781UQyIxRb655WVPt/838YYUD1wfPWjZjQsN3vzk8Ztx6r9+fXPOBzkeHrd6WzA6BpGm76clHyMiCg1yM6C/7xJvrEC6FheGbQibPHkyhg4dqj/mYzUjy7Qsmz59utmqYfq7WWeUuG5GkMF89q5JN6TU4rjT1LGv3KDQ7BsXpOl3u2M/V/DZbnCRwX6jh0291y8357g97rrNw9ZNJwxcIqpPmHTcmmkKEfKVjPLRHsuBAwcwfPhwPf3555/j3/7t3/S0qL0tBZ/q6mozBSQnJ5sp7xITE80UUFZWhs6dO+O7777T4+YqKipCVFSU7qogorr4m9EGWEEr7EFLREStg5VtCJJqtSlY2QY3VrZEgY9hSxTkGLZEgY+/GURERH7GsCUiIvIzhi0RtZg0H1+8eNHMEVFt7LMlCnKB0Gd75swZVFZWon379mYJEdkxbImCXCCErZCXEvu1EJELw5YoyAVK2BKRd+yzJSIi8jOGLRERkZ8xbImIiPyMYUtERORnDFsiIiI/493IIeTAG3Fmqq6wMODGDtebOc/ufHyLmaJgwruRiQIfK9sQUqMCtblasi8REdWPYUsNKEfGgkRkVJhZS24qYlPyzYyP+OOYREQBgGFLRETkZwxbIiIiP2PYkm9IE3BsrBlS4WwMrshAonO5GtyaifORaluXus8sNvJTPO+Xn5KIjFzruLZzEREFKIZtCPmh+qrXobq6xuNy++BdIVJn2oJPhmczzDpFAnVDBNZlZSFLhvURWL8gA+Wyrmcckq3lWeuQULTe2f+bn7IEeMlal4VRcB2zfGsi1vdZ51y3rs96JG7VR1TU9WwAFut1CYg0S4mIAhXDNoSc/+4KvvMynP3uMs6eq3/wbjAS1rtCUQ8vuT5mVH5gNwqPpmKWFcQzU9V8iSNs3arXWUg9qhcq+cjeHodR0WZWiRxpHbMcOR8UovCNWc5wn/WGmi+1whaImxGHcDNNRBToGLZtyMi5W9WQ7mHYarZovsFzXFWoY5CKU+5kXo8IZ1CrynaQ2aFBHgJ+LmtYIgpODNs2pQb/+leBGofh0KFcPc7PP6zXtET48DHAG1s89J2Wo8RZySoVOdjtnA9HxKAMZMtlGPn7rGbkcMSMBlI3szeWiEIDw7aNef/99/U4PT1d/7HvzMxMPd8i0i/7ErDE2VysBn1DUySmzFGhafX3vgyMmejYRQI1buUy4FnXPtl9ElQ9a9ZOTsYyLHEdTw2ptmAmIgom/LrGEJK1bJwKUDNTi3xd49jfvYe1a9Pw5JNP4tVXX8Xvfvc7pKSkYN68echOnYxfzH/PbE3BhF/XSBT4WNm2MRK0YtGiRSqAw3TQEhGRf7GyDSF7Xp+JmjAvH+FRle0N118nI8/Uin9//L/NDAUTVrZEgY9hSxTkGLZEgY/NyERERH7GsCUiIvIzhi0REZGfMWyJiIj8jGFLRETkZwxbIiIiP+NHf4LU4coLZooCwdDuHc1U6wuYj/7kpaL/1BVmRnkwGQdWT8ItZtazXKT2348RxQmw/QGo5infhqf/CCxt8JxErY+VLRG1nATdVGBzcTGKrcEPofd1xtPov5pfkk3Bh2FLRC1XVoqdD/ZBHzPrM6paTs0z08otca+jeJ6pgVXAp2Z87ZgmCnAMWyJquagRWJiZiCQP4SfV6NP25VIFz9sG+5b7V/dH//5mMJWrrmKnrsCKqY7lErrOY0mT9ahErFgwXK9zO75FzmMds//T2FZulsu+9nmiVsCwJSIfiEZCcTGeOOkIv6Y19a4Afu5qft6MaTo8pYo9sHI8Fr7rWJ4QZTYXUQkofnchxq88oNe9Hle7wToXqaNK8YQ5ZnHxEygdlaqWKlGPIHnlE5gUrjckahUMWyLymeh5jnA78NM/oX+t6tW7hRhhC9Lony/EzpOlZq6Z8varCF+Bac7KdpqaK8AXupq9BZPiWnw7FlGTMGxDyI8qjtc7XDlZUO9A5Cu3xD2BhZmlaGFktsyCzaaqtYbXWc3SNcOwDTF33HGH1+H222/3OnhXgf0vLMH+SjNrObIWi9d9YmZ86ROk/38PY7F9eGEHqsxaChJSWXq5YerrnCzsNNMOK7DfdhNU7v+swMKfuyrPgi+818deK2DpQ175Jy/9sl8jN69xNTeRrzBsQ9BTTz1VZ3jppZfwu9/9Tv/x+AkTJrgNgWcC4v/ydyw3Q/xP12LT+xVmHQUkfdOR1WSrBvkYkPnoj1S5d5gbmWRIQiwWOvZyeDAZff7Hte80bHb2z94SE6sqVMe+9ruSNR2o0/S6ujdIRSMhOxZZo1zHdTZr572DaVOTeIMUtSp+qUWQ8vSlFtJULBXs2wVlZom7sqpvcfkH1xcgWObeE4HPPvsM1/30DrPETirbZLXRMozobhYJqWwPDcfyWXeZBb4ile0B3PmXJzHALPHfuXyHX2pBRPVhZRuCbuz0I49D559c53HwCQlEZ9PvWhSZxVXvL0H6Eatp2NUcXbTO2tZ9e0+KDu3AiLtN0FbuQKpzPzXYmrKL1qnjv2+/Dtf59HW8775v+hHHOq2J109E1BSsbINUfZVteukps8RdxZmzuGyrgiyz+jdU2T6FdE9pOHapo9qUAEwBpr8wAd1kuW0eKqyWb+iHeFulKgG2CYlIGNfTsUCCbksfLNb7S7AlYb9jjTZi8d/x0BAz48a96pYAT4O5JmGriOWcy/f9wpxDsV9zE6/fE1a2RFQfVrYh6KtT5R6HUyVf4MuTJXWGht2Oh1a6+lD1sNjV11uVuwclRWux3KoMF6xV86XOm5oiZky2BVUFPtsHREeboBVDhmOEbfvafbZ3HlLHdFaw9huo6r4JcFbAolcfRJhJETEy2hGmovutuNVMNu36iYiajmEbgr44WeZxOKEC5PixuoMvRMz4f+5h3EAl2BQDJj6JiH8eQJGuZN9GT2fw/z885KOT+PP6iYgYtiHo669OexzKT1Wi7Muv6wwt1S36F8CGrfX2u7r0xO0jgdxc293FRw5g/4A+rqqztrJSlOj1Faiwn6QyF7mNO2m9mnb9RERNx7ANQZdOFroNF49/qgLruMqm/0FV/v/g4me5bkOLdZ+AhMVAmrN5Vw31fAa327hlGH/qKde2zv5ayw73Yy0H4vX6u3DfDCB9gVmeAkSPNbu0RBOvn4ioqXiDVJCq7wYp+Vyt3ZUrVzBp0iS9PCwsDP369TNrHHbs2FHPDVLUGLxBiojqw7ANUvWFrTfyguoNw7ZlGLZEVB+GbZDyFrb1uXCh7j52DNvmY9gSUX0YtkHKU9jStcOwJaL68AYpIiIiP2PYEhER+RmbkYmCHJuRiQIfw5YoyAVC2J4/fx5VVVX44YcfzBIismPYEgW5QAjbkydPIjw8HO3btzdLiMiOYUsU5AIhbIuKinDnnXfiuut89CcbiUIMw5YoyAVK2EZFRaFdO95zSeQJfzOIiIj8jGFLRETkZwxbIiIiP2PYBgHpVr/67Vrg2G/MEiIiCiYM2wAzdwew8P0a5zDnnUo8sf4z9YO64lxPRETBhWEbQCRI24ddxeXqMFy+UqPHV6plnj8mIqJgxlfxAFONMMeE9REK20cp5hatMlOBp3xrIhK3lpu5pslPiUVqrpkhIgpBDNsAkjJB/a8mTMVtjRpfdY7bqcHBBDEREQUVhq2fhYU1LSAlcFeOq8Gq8Y7xmmnd8d//MdCsJSKiYMSw9aOmBq2lfft2bkO7MNePaeU417cFNZY008bGug/SbCtNv6m5+UjVyxKRUaE2rshAon3blHzHQaC2W5CBDPuxnOuM0i1u+9qbhuVczv30ccz5qA0rR8YCD/8OclPr/tvyNfl3rv4dNq/j41qwfk+toXG/P77somF3T8swbP2kuUHryZO7lulxyoDfIC7zt4jb9XtMOfSCc6i8cEav90i9cC0pSsC6rCxkqWHdnMGIeykLCdGO1RnPZmOUXpeMuJ5qQc84JJtts7LWIaFoveuX+mgqSkZa67KwDEvc+mkLiyKw2Np3fQKKNpgXM/XCtvyDMc5ryHoG2L1d70JEDZI3JUsA9Xtr/e45f199Sb/RTlWxTv7AsPUDXwatuOG6DmYKqPnBfJW11Y2rxrM/XYnL1Y6PBjVGUakrIAfPmYJIM+1gfwc9C6lHzWItDqNMSIvIkXEotB9rdAzCzTR69sEAM1l+YDfgti4GYwaZaSJqQDlKjg5GxK1m1ldUuKbab2rUb7QTnK8H+SkMXl9i2PqYr4NWnOp0FnNOfqOna8JM2Fo/OTOenv9Hx0Rt0QlYNiAVs0yAzlIV5uLJztirRd5Br0fEeuvds6psGYp0rUmzsvMNoCsAPHaDKO7dJvUFRgm2LHBt63Y3vds5beuk+kvJUL8nrnX2Ju986R7Zat/XvbnX7dpq75drdeHUvuZIjJpYiNSXPTV7y+N3375Oc+8+D8+fPL6Zqch4Y5Zerh+fs2ldXgdisWR7BpZ4vB7h2MY6bnM/idCWMGx9yB9Ba/nqsqOUDasx57BVtmJzdJJjoo58ZG+PwzKr+WllnKvCrEPeQZtJUZGD3W6VbQaybb/E+fsyEDfSvS72JLzPABR+kON6oahzXGq7VIjMdL1o6+HZDLNOkQDYEOHqglgfgfW2vtba3SASwOv7rDNvFtXwErDEW9/s0SJEPGO2U28sx3wwyxVS6k2q8xhZyzDgjS2uwNm+G7Dt59bVIo+ndJRr35cGIHWzY8/a17auz3pbSKn9NsB0w7iqS0vkXLV8Rol501zfG4i6MmC/HvN8yON7KQ6D5ziuJ9ntDXg44lbKG23rdaPu9eSnzELJDHNMNcwstT135BHD1ofkaxU9DT5hflJhPzJha6ts37rrGbTzGvTyrth6h2oGrzefRGLKHLhe/F4Gxkw0q7Q49S7ZdZwlWObs+62X+sVeN3q3s7qOfbkEA1gxkzYYCc6WFDOoELBIF0ThUVfLjFRjhUdLnOHp3g1SjpwP1L/Z4bbgiB6FONv2bgaNQYyz3zMcMaMHu7pYdP+lOWfsEhVYNrX2U+8l3bi9Ab01Qj1CIddWiEJTScow6w01b+uGiZtR3xthxXoDIG84GnmDlHC7nvqej0aTN/DyRsd6fqQKdu+eoroYtkFgy90voEs7R5juiFuJjAde0cuswd6nW5s0KWXbbmqyvxMPn5xc6x2tY5lzW1UFx811vxFjlLzDttbPdf0S1z1WJBJsVbT7cacgwiwX8q69UaFNbZJVfbmGupWWb+WrN5wlmOk83zJ5m+kDHt5Y2H6HGq1nHGZOLETJl2b+mrC1lpmh9msJuWPYBgGpjt/s193MNUU5Sotq31ghTcUD0MfXdzIS+UH48DGAvQm3XlKdArsP2Cqs3GxkDIrwXDEe3Y0cZ3Voq4orSlFklmpyDDPZfI5rs5qUW0YqS283TDmqTruMfbZzymOZOMr5ZsVeWddVhFKP1bOjtWw9+2mbhGEb0sIR98wY7HbrE5MboPxdGRD5iNwhK/2Mzn+/aqjnM7jSgiL9h85tpb/X230KE1WQv2wddxZ2j14M6+NvM+1dL/sifHKjoFybfFzOeW1qaFw/Z+3P2MrHgKwWJ+n6KbI9P9mImONouHZQ1XSfbLNODc8Cy6xqWpqUtzuup+4NTubNgX7tqNtHHDnX0cftPG4TmrXbqjBVNfmoU5H8RX5EYWdfB776DBj4X2YpkUN1teuLTpKTk82Ud4mJiWYKKCsrQ+fOnfHdd9/pcXMVFRUhKioK7Wzf5U1ELvzNCAL6LuefJDBoiYiCFMOWiIjIzxi2REREfsawJSIi8jOGLRERkZ8xbImIiPyMYUtERORnDFsiIiI/Y9gSERH5GcO2jZj84k49EBFR62PYthHynZz8Xk4iomuDYRvi3sj8FEVlZ80c9LQsIyKi1sOwDVGXL1/GhQsXcPDzr7H07UNmKfCfG3OQd7wSly5dMkuIiMjfGLYBRv/RgRY4f/483n33Xbz22msoLi7GHx69G+cuXjFrgYuXq/HstCicO3cOu3btwtmzrqqXiIj8g2EbgJobuFevXsXGjRtRUFCAK1euYMuWLfi24iSWP/7vaN8uDO3UcZfNGobwn1yHI0eOIDs7WwcuERH5F/+ebYCxB21TfzTp6ek4fPiwnr733ntx8OBB3Vw8ZcoUoHNvXFWHuwlndeXbv39/DB06FFlZWRg5ciQiI+v5c/KnMrEqLQdn9EwXxMTPx4O99YwPlSNz1RrkOE6iThOD2fMf9PxHv8kN/54tUeDjb0YAa2qFe+zYMYSHO+JpzJgxmD9/Pu677z5s374dn2RnYV/WOzhw4AAmTpyIhx9+GP369cPw4cN1hVuv8kpg2GwkJSUhKX4gju3KMyt8RYL2r8A0dXw5hwxBGLTlOzYg85SZISKyYWUbYDwFbGN/RN988w1uvvlmLF26VAeWRW6UeuWVVzBs2DBMmDBBLztz5owOWWlyjo6OxtixY/VyT/I2rkLZA6aazd2AVRXjMH9CuAqXVVhzUErRvogZpkZDZ6ht8rBh6TackB2FqVDh3FZtHZeEGdF60sF2THf2atdWUavtNxQAJ47LWfpiUnx37DWVt/PYbtu4L1+aYa6u3yQkPRalJtR5NuaqcQ5yjquRrap2PUbrGJ63Ldu4FNtkXukbNwnIsJ4DdX1JMyBn8RdWtkSBj78ZAa4p74UkaD3p2LGjHksTs4Trtm3bkJaWhqqqKh3E9QWtBFFZ1RnkpC3VIb60YIgjFFVoram8z1SiQ1B5EOilgjBv4150j3dUp5P6qaCR0LJvG9cXpyvKzbEd8gpOY+DQunVs3kZbtWurqPMKTqggG6KXzx52Gts2A7+udWz7NknxMThdoPaV5nB1/XqZGiZhr6MSPZWLY8dzUHmHLJ+NGFSiTA7i6bq9bBv1QAy6SHirbWfgCE5bLQF+DloiCg4M2wDm60aHrl274r333tMVzKJFi/DYY4+ZNfUpQ2U3R4joQVeCjoCMecDEyKkynO43RIdK1B1dncG8t/s4vUyCD8e3uYe1k4S5mXSThyNVAxFdp29Ytlchbq6jrBKImWaq0IrT6NpTT7lto5vBu/dC+eFj6HqHWWZnmskd1bZ6vOiOXmrK43V72dY6hxY9A7/GX9V+G9SjICJi2AaslgatNAvWNnv2bB2wo0eP1jdOSaXbu3cDdzrlqirNChGPypG5OccEjZou6I7ZJphdoSpNwO5h7RKOXt3OoNK92K0jb1eOCUpbwEmowgrkcuR+3hVDaoeg4rFyVlXuXhPmrpBW1OM90a2X6S+ue93etnVbroRPmK8q6u7Yu5FxS0RA+xcUM00BQKqolgatNA1nZmbqwO3Zsyc6dOiAPXv24P7778f111+vb5KSO5LlPHKzlNXM7El5/oc41XMshtbK217Vn+PtTenquMXo0PsGdOyrtqnZi0wVitnqXHK+wxcGYfjATuh1SxUy097GTll++HsMGj4QncxxRK+hg/DlO/8Xb++07zcQPU9nYs3bO/WyioGzMfs+tVfuP/DhDT/HWHVcnFLnO9ELY/XFHcP+j64iUo4t25z7HgXp6fqcFQNn4rHoTug0sAMOr12LdLmO3A4Yt3iqiupy7M08hf4PD9XhLI+3qu9D+vHWve7OyPWy7bmij/DPD3aqawc+f3u9Ocf3GDL1IQxsfldoo9j/vcjPtiEjRowwU+q6z53T/z7kS1Bk3FzSJdGrV68m39RH1FaEqV9U37ZVUkCQoJUboD755BPcdddd+Oijj/SLbH5+vr4LWe5S7tGjh9naF/KwYVUZxjnvIlbzG4EZdSpZ/5Obmt7vOd809YY+3iBFFPj4mxGi5IUzNjYWc+bM0fNStcgL6uOPP46pU6f6OGhFFIZ0y8Ea6d/Uw150t/p0W5W9OZmIKDCwsiUKcqxsiQIffzOIiIj8jGFLRETkZwxbIiIiP2PYEhER+RnDloiIyM8YtkRERH7GsCUiIvIzhi0REZGfMWyJiIj8jGFLRETkZwxbIiIiP2PYtgHy9ddXv10LHPuNWUJERK2JYRti5u4AFr5f4xzmvFOJJ9Z/pn7QV5zriYiodTFsQ4gEafuwq7hcHYbLV2r0+Eq1zPPHTER0LfFVOMRUI8wxYf2pM9ufPJtbtMpMBYmKDCQuyEC5mW2afKTGxiI2Jd/MExFdOwzbEJIyQf2vJkzFbY0aX3WO26nBwQRxqMtNRWxsNkatT8Bgs4iI6Fpi2Aa4sLCmBaQE7spxNVg13jFeM607/vs/Bpq1bUR0ArKyEhBpZomIrjWGbQBratBa2rdv5za0C3P9mFeOqzZTjVWOjAWxqlK0hlQ4Gma9LVdrtiYidWsGEu3rpEnYOZ+IjApv27rW1aErVms71/mIiAIdwzZANTdoPXly1zI9ThnwG8Rl/hZxu36PKYdecA6VF87o9R7lbsHu0etUpZhlBqtiDEfcSmtZFtbNKcL6ra7e1YwPgMW2dUtets8DqZtdUWnfNmv9GOye6SFIJaw3RGCdc7sIrG92fy4RUeti2AYgXwatuOG6DmYKqPmhxjFhdeOq8exPV+JyteOjQXVEj8KAN2Z5rDjzU6wqMxaz3ig0Sx0Gj45RcewQ3mdAnXk7+zr0jMGYQUUorXWu8gO7UXg0FbOsylYFcuHREhW25kYoGRi+RBSgGLYBxtdBK051Oos5J7/R0zVhJmytn7wZT8//o2Oijkgk6GpyMfCyhJqj6pTm3/V9XBXvujn+vxVp8Bx7hS2DVNnW9alhZZwrtImIAgjDNoD4I2gtX112lLJhNeYctspWbI5Ockx4Jc3G65Bgqs7yUnslW46cD9wr26Yo/CDHVZFW5GA3xiCmp5k3woePAd7Ywn5aIgpKDNsAIl+r6GnwCfOTDvuRCVtbZfvWXc+gnbegd7spaRZSB8xEnArCyGkJKvykeVmWLwdGx5kdmm7wgBIst84xU0XtMx4q1J5xSH4JWOK8FjXwM7REFCTC1Iu5j17NKZD977yleLPTN8DA/zJLAoM0Ry/HYiRPZgNwc1VXu+4wT05ONlPeJSYmmimgrKwMnTt3xnfffafHzVVUVISoqCi0s32JChG58DejDZD3U2/2627miIiotTFsiYiI/IxhS9dU+ORkNiETUchj2LYB+i7nnyQEXH8tEVFbwbAlIiLyM4YtERGRnzFsiajF5CM/Fy9eNHNEVBs/Z0sU5ALhc7ZnzpxBZWUl2rdvb5YQkR3DlijIBULYCnkpsV8LEbkwbImCXKCELRF5xz5bIiIiP2PYEhER+RnDlhpl8os79UBERE3HsKVGkY59du4TETUPw5bq9UbmpygqO2vmoKdlGRERNR7Dljy6fPkyLly4gIOff42lbx8yS4H/3JiDvOOVuHTpkllCREQNYdiGGP1HB1rg/PnzePfdd/Haa6+huLgYf3j0bpy7eMWsBS5ersaz06Jw7tw57Nq1C2fPuqpeIiLyjGEbgpobuFevXsXGjRtRUFCAK1euYMuWLfi24iSWP/7vaN8uDO3UcZfNGobwn1yHI0eOIDs7WwcuERHVj19qEWLsQdvUH216ejoOHz6sp++9914cPHhQNxdPmTIF6NwbV9XhbsJZXfn2798fQ4cORVZWFkaOHInIyEi9n0enMrEqLQdn9EwXxMTPx4O99YwPlSNz1RrkOE6iThOD2fMfRFv4S7n8UguiwMewDTG1q9qm/HhfffVV3HTTTSgvL0dSUpLusz1w4AA++ugjRERE6CbjLl266GAdNGiQ3ic3Nxf79+9HQkKCnvcodwNWVYzD/Akq+iR4d/XC/MeizEpfkKD9KzDNHyHeesp3bEDu0BlNfgwMW6LAx7ANMZ6akBv7I/7mm29w8803Y+nSpTpsLRK6r7zyCoYNG4YJEyboZfLF89KMLE3O0dHRGDt2rF7uSd7GVSh7wAShLXjLd6zCmoNSivZFzDA10kGThw1Lt+GE7ChMhQrntmrruCTMiNaTDvYwd2Ovdm0Vtdp+QwFw4ricpS8mxXfHXlN5O4/tto378qUZ5ur6TUKSftOgzrMxV41zkHNcjWxVtesxWsfwvG3ZxqXYJvNK37hJQIb1HKjrS5qB+t6aMGyJAh/7bENcU95LSdB60rFjRz2WJmYJ123btiEtLQ1VVVU6iOsLWgmisqozyElbqkN8acEQRyiq0FpTeZ8O9aSkIag8CPRSQZi3cS+6x8uyJEzqp4JGQsu+bVxfnK4oN8d2yCs4jYFD6zYY522UatdxrKT4gTi2K8+xvOCECrIhevnsYaexbTPw61rHtm+TFB+D0wVqX6nK1fXrZWqYhL3IPKU2PpWLY8dzUHmHLJ+NGFSiTA7i6bq9bBv1QAy6SHirbWfgCE4Pm+3Yr4GgJaLgwLANYb5utOjatSvee+89XQEtWrQIjz32mFlTnzJUdnOEiB5M87EEZMwDJkZOleF0vyE6VKLu6OoM5r3dx+llEnw4vs09rJ0kzM2kmzwcqRqI6DpNsrK9CnFzHWWVQMw0U4VWnEbXnnrKbRuUq42690L54WPoeodZZifrVTg6qm31eNEdvdSUx+v2sq11Di16Bn6Nv6r9NqhHQUShgGEboloatNKsWNvs2bN1wI4ePVrfOCWVbu/eDXQw5qoqzQoRj8qRuTnHBI2aLuiO2SaYXaEqTcDuYe0Sjl7dzqDSvditI29XjglKW8BJqMIK5HLkft4VQ2qHoOKxclZV7l4T5q6QVtTjPdGtl7kxq+51e9vWbbkSPmG+qqi7Y+9Gxi1RKGj/gmKmKQRIFdXSoJWm4czMTB24PXv2RIcOHbBnzx7cf//9uP766/VNU3JHspxn4sSJzmZmT8rzP8SpnmMxtFbe9qr+HG9vSlfHLUaH3jegY1+1Tc1eZKpQzFbnkvMdvjAIwwd2Qq9bqpCZ9jZ2yvLD32PQ8IHoZI4jeg0dhC/f+b94e6d9v4HoeToTa97eqZdVDJyN2fepvXL/gQ9v+DnGquPilDrfiV4Yqy/uGPZ/dBWRcmzZ5tz3KEhP1+esGDgTj0V3QqeBHXB47Vqky3XkdsC4xVNVVJdjb+Yp9H94qA5nebxVfR/Sj7fudXdGrpdtzxV9hH9+sFNdO/D52+vNOb7HkKkPYWADXan2n7f8bBoyYsQIM6XOe+6c/vnKl5jImIj8I0z9ovq2rZFCggSt3AD1ySef4K677tJ3JMuLdH5+Pvr164f77rsPPXr0MFv7Qh42rCrDOOfHddT8RmBGnUrW/+Smpvd7zjdNvYGPN0gRBT42I5NH8sIbGxuLOXPm6HmpeuQF+fHHH8fUqVN9HLQiCkO65WCN9G/qYS+6W326rcrenExE5BusbImCHCtbosDHypaIiMjPGLZERER+xrAlIiLyK+D/BzfTiF+BNEqxAAAAAElFTkSuQmCC;" vertex="1" parent="i4hqYP4whVOMsoO-DvEu-35">
          <mxGeometry x="143" width="475" height="285" as="geometry" />
        </mxCell>
        <mxCell id="i4hqYP4whVOMsoO-DvEu-15" value="" style="endArrow=classic;html=1;rounded=0;entryX=0;entryY=0.5;entryDx=0;entryDy=0;strokeColor=#0DA2D3;exitX=0.301;exitY=0.228;exitDx=0;exitDy=0;exitPerimeter=0;" edge="1" parent="i4hqYP4whVOMsoO-DvEu-35" source="i4hqYP4whVOMsoO-DvEu-30" target="i4hqYP4whVOMsoO-DvEu-4">
          <mxGeometry width="50" height="50" relative="1" as="geometry">
            <mxPoint x="634" y="61" as="sourcePoint" />
            <mxPoint x="804" y="124" as="targetPoint" />
          </mxGeometry>
        </mxCell>
        <mxCell id="i4hqYP4whVOMsoO-DvEu-32" value="" style="shape=image;verticalLabelPosition=bottom;labelBackgroundColor=default;verticalAlign=top;aspect=fixed;imageAspect=0;image=data:image/png,iVBORw0KGgoAAAANSUhEUgAABKEAAAE5CAYAAABIyjOuAAAAAXNSR0IArs4c6QAAAARnQU1BAACxjwv8YQUAAAAJcEhZcwAADsMAAA7DAcdvqGQAAABjaVRYdFNuaXBNZXRhZGF0YQAAAAAAeyJjbGlwUG9pbnRzIjpbeyJ4IjowLCJ5IjowfSx7IngiOjExODUsInkiOjB9LHsieCI6MTE4NSwieSI6MzEzfSx7IngiOjAsInkiOjMxM31dfW9NQ/EAAGSlSURBVHhe7f0LfFTXfe/9f0FIzOiOLlwEyDcQt2BUmzhcYnNKY/AlNU6N60COHSc5fUJe/yRPGjfNP6f/9KHNk54nyXGap+nrVfqkTVz7HKgfcG18fAmQ0oIDIg52hTE3gbERIG6S0H2ExOW/1541V81IIzEjjaTP268d7bX2zN5r79mjaP9Yv7XGFNw6/4YAAACSwJOTZ9cAAACASGPtTwAAAAAAACBlCEIBAAAAAAAg5QhCAQAAAAAAIOUIQgEAAAAAACDlGJgcAAD0241rV3Xj+jXduHFNunbdqbjurN/QGGcx/xljnP80dqzGjHGWjAyNHZepsRnjNDYzSxmZ493XAAAAYPQgCAUAAPp0wwSZrnY5y1XduNZtawfOBKjGZo3XuPFeZTiLCU4BAABgZCMIBQAA4rpuAk/dV9yeT6mUkeXROG+OMj05tgYAAAAjDUEoAAAQwaTVmcDTdWcxaXaDaczYDGVm5zpLnpvGBwAAgJGDIBQAAAi63tWp692dJhJla4bI2DHKyi5QVk6+rQAAAMBwxz8xAgAA3bjarWsdLbre5Rv6AJRx/Ya62prUUX9OV684bQIAAMCwR08oAABGuWtXOtz0u/7IycnW7Fmzdcftt2n69GmaNHGiJhRNUG5ujrIys9zXdHV3qa2tXZcbL+vCxYs6ffqMPjj5oY4eO6r29g73NYnK9OZpfP4EWwIAAMBwRBAKAIBR6sb1a7re2e7+TMSkiaVavHiRPn733ZozZ7atHZgjR47qt++8o6qqfbpw8ZKt7V1GZpbG5xdp7Dh/kAsAAADDC0EoAABGoRtXu3Sts92Wenf3XXfp/vt/T/csvNvWJNfb+9/Rjh3/qnfefdfWxDfG+c9TUKwMT7atAQAAwHBBEAoAgFHGzHp3/Urf6XAm+PQHjz5y072eEmV6R/3LK68mFIwanzfBnUEPAAAAwwdBKAAARhEz8931Pgb6nlhaqif/81otXbLY1gyuPXur9ML/2KiLl3pP0xvSQNTMpXqiskRZ6tb56je047itBwAAQFwEoQAAGCUS6QF1/+8t1xe/+HmNzxpva4bGla4r+vnP/0k7/nWnrYltaAJRM3T/o/NUdPmQXtx1wtYBAACgL2PtTwAAMIKZMaD6CkB9+Y++pK+s+9+GPABlmDaYtpg29eZK62Vd6+zfTHs3L1fezG411hGAAgAA6A+CUAAAjHBm9rveBiHPycnWn////qtWrrjf1qQP0ybTNtPGeDqbG3T9apctAQAAIF2RjgcAwAh3raPFDUTFUlhYoP/67T/VjBl32Jr0dOLEB/qrH/xQTU3NtiZSRmaWvEWTbalvU5Y9pq8syLUlo01v//NLeu2iLfaqUo88XiYfY0EBAAD0Cz2hAAAYwa5d6YgbgDK9i4ZDAMowbTRtjdcj6lp3l660XLalvp3b9ZJeOW0LjpM7Ew1AOWbmyKtOtRKAAgAA6BeCUAAAjFA3rnbrRvcVW+rpmT/+xrAIQAWYtpo2x9Pta9XVPmb+C/fuy3t00qy0HNW2992qPpgeUKv05Dzp4Oad2mdrAQAAkJgMT+Gk9XY9iYo1+75K3ZXp0weNif8xCAAAkue6GQfqRuysezPg9yeXLrGl4WPy5EluCuE77/6HrYl0vbu7H7PlNeqCZ5JuVO3Wu/GHzApzXscOH9N718q1/PdmKu/whzpjtwAAAKBvyQ9CeabqniW3a5JZb20gCNWHJQ+v1u8tnKvKW7yqPn7O1gIAcHOud3W6M+LFcv/vLddnn/hDWxp+ZtxxhxobG3Xyww9tTciNG9elMWOUkeAMf22nPlBNQgGoMI3FumPeBI3tPq6TjbYOAAAAfUpuOp4JQN1TrkJbRB8+sVIV+a2q2bRFz73+jq0EAODm3LhxQ9e7O20p0sTSUn3xi5+3peHLnIM5l1i6Opr9wSgAAACkleSPCVVXo+1v16rJFhHfvByP1FKvvbYMAEAyuONAxUnDe/I/r9X4BHsJpTNzDuZcYrp+Q90drbYAAACAdJHcIFTnWb19osEWUmWJsldt1NSnQkvxnaExLTLu/AdNXfY5W3IU/KmKn/orZdmiq/yvwt7/D8ousPUu//4LyqWsZTFe47431v6i6gAAGCLX4wxGfvddd2npksW2NPyZczHnFEt3R5tdS4U2+boz5Y34+wEAAAB9GbLZ8cpWPKUffuerYctTenSy3diLrGVf1YSm13X2+bXucumU3ZAoE5T6TxN1eav//Wf//aImrOoZQMr9TxuVd/lv7TGyNaHSBrZqDzl/et4qb7m/aGTddqt06pBij7wBAMDguW7GgYqTivYHjz5i10aOeOd04/o1dZuB2VPihHYcqpf3tlV68vGHdP9MWw0AAIBeDVkQqm7789r8kS04Trz5vF45bwvxFPyp8m75SJd2/U9b0X8Zt1RI1T9XR7OtqH1Nl5sjg0quU6+r4T1/olzXh05DC6cqwy39T7VVdyj3tkBvq8/Je0uHLlf3v00F3kx1+UgXAAAkj5uKF4PpMTRnzmxbGjnMOcXrDXXVl6oglOP4Hr24eate2PyGdhy3dQAAAOjVkAWhjN9u2qkTZqX5oF6rdqtSLmNCtjyVX7Vpdmb5qibE6E7f9mFYUKn2v+rs1h/qmi1eO1Wjzlvm+XtPlc9T7ql/CwW1EjBv+So9vWa1JtVv0cadNbYWAICbYwbjvnHtqi1Fuv/+37NrI0+8c7vW1anrca4HAAAABt+QBqGkw3rtnTPa+y+7VGdrBkNntT/NLnxprrUbE9H8a/ls7ymTihcRsErAoZ1b9dymLbpQslprl1fYWgAAbs4Nk4oXw6SJpbpn4d22lDyXLzfqw5Mf2NLQMedmzjGWa1d8dg0AAABDLTVBKDNA+e4qbU9gkPK67a/0nYYX0HxWV8PGYzKDkJfe4l+PEEyd+5wKVlXK4677mdQ6T+UXowYj76+96viPj5T7O/+gvMJqtfUngBWm2detLG+eLQEAcHNuXI3d62fx4kV2LbkyM7O07kuf19/+5FnVX7poa4dGvHO8dqXTrgEAAGCoDXFPqP76n2r+94/cQcNNKt3kCf/WY2Dya+/9XJdVqcluqt3vqvvfqxXx56dJrXMHIw+k45llADPbmQHKC7KlD38dTNMDAGAo3bjWbdciffzu5PeCCve/tr6s//zEaj33jz9TZ+fQBH3inaNJyQMAAEB6GFNw6/wbdn1Yylrmn8UuMIj44PmcCkyQa+t/6dd4UOHM2FAf957Rc6+/Y2sAABgYMxbUtRiTXeTkZOuF535uS8nV1tamx37/AVvyKygo0BNrn9Rjf/hZWzN4nnz6i2pv77ClEG/RJGVkjrclAAAADJVh1hMqfWQte7jfA5JHO9Te6fxlnKt5tgwAwEDduB67X+7sWYM7I15zc7P+n7/7W33xyc9q+5uv29rBEe9cr3fHHisLAAAAg4sgVD+Znlcmha+0sFrnd/VvQPIefrNNNb5SfXzNaj39cGpTJQAAI9uNG7GDUHfcfptdG1xnz5zRsz/8b/r6V/437f31W7Y2teKdKzPkAQAApIdhn44HAACka762mGNCPfPH/7uWLllsS8kVKx0vnoUf/4Se+NyTunNBpa1Jvj17q/TsX//fthSSkeWRd8JEWwIAAMBQoScUAAAjwY3rdiXSpInpEXzZ/9vf6Fvf+Kr+r/9zvT48+YGtTa5453rjWjpNIdKt55+oUs2DZvyuVr35X6q0f3HsAeX9/K9/c1CzKvvbxpsxQ/c/ukpPPr5KTyybYesAAMBIRRAKAIAR4MaN2B2bJxRNsGvp4d/+9Vda96XP629/8qzqL120tckR71xvxAnQjWizz6jmiXp9yRbT1dxlFZqser2zeate3HXC1gIAgJGKIBQAACNBnEBLbm6OXUsv/2vry/rPT6zWc//4M3V2dtramxP3XK+nUxAqU6dbpJYmj7Pu0aVW6dLlTP+mtDF4bcz3ZKrr8gUdtmUAADCyMSYUAAAjwNW2y3Yt0kv/7yaNGTPGlpKrP2NC9SY/v0Cf/dyTeuwPP2trBsb0BnvsD9fYUqTcSeV2bTgwKXDv6w5bMj749WI9eNQW3HS5/VqUZ4utM/WDF0v0j2a9pF77Hz2ufHdDuOna/A/T9Ge25PaU+uRpW4jef4JmLtUTlSXSxUMD7sW0aOUq3dI58PcDAIDhhZ5QAABgyIwZM1YPP/KouwymKcse019+/fNhy2P6dFoMn2UCTO+r9NBCVfzDYmdZqH1maKYwX1p8QfpXs81u13F9JTBmU32JFpr6X0/3B6fc15glLABlgly3Fdh6/2vv+OQZfd9uBQAASBWCUAAAjGBd3V12Lf38/qrP6IV/3qKnv/RH8nhM6tfNiXeuY5z/op3b9ZJeCXUE0smdL+m15A5RNTCzL2iRZurvquKnv/1j1TQ9VW8LytSu2mLlF/YnpTFPD74Z6EblOFqgD9Sh6SW2nKjje/TiTY3lNEN5XsnXTi8oAABGC4JQAACMBGNi/196W1u7XUsf/2n5p7ThH/9JX/3GMypN4ux9cc91bOxr8+7Le3TSrLQc1bb33arhwaTc/Zcq1djl2/Ma7IbEff/B0PtrolL/BoNJw3vy8Qrp0Fa9ut9WAgCAES/pQaiiGYu14r7AUqEiWw8AAFIn3rhPlxtjjxU1FBZ+/BP60U/+Vt/57nrddnvywx7xztWk/MV2QtsOnNPbb/xG52xN+mvVm48el4Lpeov1g0PFdltivrS4Ro9PNWNEBVL1PqYP7LbBsm/bVr2wuUaat0qPLLSVAABgxEtuEKqwQgvLpNr3qrR9d7WOthRr4Yz+/WE0Ij24QGU/uk0Ztthvc25T0d8vUJYtDg85yv7RCuU/aIt9ulufWbNKD8yyRQBA/8QJtFy4OPQ5ZhWz5+jP//Kv9P0fPqs7F1Ta2uSLd65jMuL/P/C5XdvTIw0voN6jlrxGLbOpcd9/MGwA8jDB2epK6vWVWD2hovbTQ6vH3wvM8f0HB9gTygxM/vgqPbFshq3orxNq9UnenIG+HwAADDfJDUI11Wj77iodbTIFn9ranB9lxenXG2pYBnVGsgo9sPo2eS8c0S+P2SoAQP9kxP6/9NOnz9i1wVc2dZq++aff0U//7mdaeu99tjZ14p3r2HHxx1dKO/Ul+rtD0qJH/alyK5sWavNZu82Vpy2HinXHJ20q3aOdOhyrJ1TUfmr+S2jg8X+smqIP8o7r2zYdb2XTzEHvCQUAAEanMQW3zr9h15PLM1X33FOuwpZavVV9Vj5bnRZMEOob+Wr78gENynCtpifU8hZd+NaHumar+mWw25sUpifUUo3buV0tb9qqOOYtX6WPFzXpt1t2yfl7GQAwANe7r+j6lQ5bCrn7rrv0Z9/5U1tKrra2Nj32+w/YUkh+foE++7kn9dgfftbWDI7v/7cf6p1337WlkPF5E5SZHaM7EYacGRvqls5DNzG4OQAAGE5SFIQq1uz7KlTurDWdqNbbdckMQfmDG4X5tnjygOp+cMEW7DYdDwV8TADo0Ulqe8UEQyYp/+8XKNd9bbg2Nf1krzqO2KIiX9e5b48afxEY7NQcY4H08w807huB11xQfVSAKOMLSzRpUdiRWsLa5Ijc3vP9gXaHRL8m6lyi9t/7dfKLbEPUNQgGvs7LEzhOj2P0PE//dTZrgSDUAenR+NfJn4Y3Tb53t9ILCgBuwo1rV3XNFzWXvyMnJ1svPPdzW0qu6CCUGZfqs2uf1BOfe1Jer9fWDp4nn/6i2tt7BuK8RZOUkTnelpBO5i57SHd76vTCtmpbAwAARrIMT+Gk9XY9Sbwqr5ynO8zfei21+u3xRl31b0iKrG//roo6Dqju//ueWl87r2uPflx5087LV93tbO1W9442jVk9V9mlpq5I+d+6Q13BwEi7rrz2gVo/uK7MRVfV9OW9ajLl106rOzjVsQmefFxZ/7FHF7931NnWpsyvfFzjr32gK+4/0mUpc8UMFS7LVcdP/l2Nv3DasGyOsoNtcDy4QFM+1a36wP6v5Srvtitq39EkN+IXtb2j9A5N/Nw4dQS2mwDQ00Vqc/cfaO94db12IRgAyvr2UnmOBdrovCbwXqv36+RwjpE37aTq7fs7SqerZEVYG0onyLuoXPm/HzhP/3XNCl6HQACqPXSezhLY5r9OzvsX9HKdjE/cqUW5bTry1ildslUAgP4bM3asrnf1nKa/u7tbd87/mEpL+zv/ft+6urr0/276H+76p1d9Rn/+F9930+4yMwc//e3IkaP65fYdthQyxvlvfD7TpKSrS6duaNL8mVo6f7bmlF7ToVONdgsAABiJkjsmlKNoRqVmu71vGrQ/6Wl4k+S5/YLqgz162tWx84I8cyeGDfp9QS0/OS4tmqHsL9yh3JMH+kwHizBnojw6ruZgz6cLat/Xptw7w3slmR4/gV5D7bpyuE2eiYHeQDnKXm56XsVPncty9hW+/dovPlBb/hSNn+MvZz0yU9p3IKxnVmyR5x0uget05EO1BM/RacO+c+rMz++xv9B5XlDnSWnc5By33hwjZ1Fur+dpxL9OfvNyPJKvjTQ8AEiCMRmxgz+/fecdu5Z8/2n5p/R3//CcvvaNZ1Q6caKtHXzxznFsFj2g0tsJ7XjFzJS3lZQ8AABGgZTMjmcGJT/6do2S/m9Zc7I1TpNU8vcrVBZYIlLWrCMfqnlfjgpNL52oFLQ+3ZovT/5MTQo7RkRa3U3L0bgSKffRsHOImSLYu64f7FGTQu2MmIUuoetkenyFbf/GTHnslpAL6gwL4HX9YHsoLdE9RpuufuQvDlSBdxgNFgsAaW7MuHF2LVJV1T67lly5ubn6znfX6/Y7hn52s3jnOG784KcFAgAAILakBqGKSgKzs3g1+57FWnGfWSqSPDueGVdou+rCl+gBvx9coElzz6l+X45KfnRbnN5CvTBjH0Ufo7/BrD6YsZMi9v/l8DGpEtGujm/Z9/7kuMY9GhWI6uM6mXQ+d+yswDZnHz2TOHpxpCMpaZbNvrDUPADATRkzLva8rxcuXtLb+1PXG2qomXMz5xhLBkEoAACAtJHUIFTjiSpt3x29JLFH1JGL6myZpJJvx+j9FDRJ+WYg8p0fqusXB9zeQgVfCKSQWW4AZZI8EUEb683zasuP8Z6EtetqvULpe2Z8p4heSP60tNxHFyj2o4J07WJbWOqccz4xeymFiQ4IJXSdHPUdNiiVo+wv9nGMHkx6Xq4KvziAIF+YQ+2dkjdX82wZADBwY8aM1ZiM2L2hduz4V7s28sQ7t4wsj8bGuR4AAAAYfCmaHS+V/LOuBWd9c4Rmr7MzxoXPBGdnmYuc4c4RMftc77PjGT1nfQuU7QDdEz8I6y0V/v4Lqv9Ji3K/KDXHnR3PETHzXPg5mraZmfgmqzM4s1zP9vU4v16vk8Od/S4UeGrbd1zjFpnZ8OwxgrPj9T7mU9a3V6jkdltw9O86GWZ2vNukk1v08m9sFQBgwK5f7dL1zvD/Pwj5/l+u15w5s21pZDADkv/Zn8eeY2V8QbEyPQP9RyUAAAAk2zAMQmGkmbd8lT5e1KTfbtnFAOUAkARX25ulG9dtKeTuu+7Sn33nT21pZPj+f/uh3nn3XVsKGTM2QzmlU20JAAAA6SDps+MB/XVo5xGdV6kWLK+wNQCAmzE2M/aMcCZYs2dvlS0Nf+ZcYgWgjMzs/k75AQAAgFQjCIU0UKNfbvlQvklz9MAsWwUAGLAxJgg1ZowtRXrhf2zUla4rtjR8mXMw5xLT2DHKzM6zBQAAAKSLDE/hpNgDKQCD6pyOvn9MJxpsEQAwYGNsAOrGtZ7zmLZ3dKiluUUfX3i3rRmefvazn+vg+7GTuLNyCjUuq3/TbQAAACD16AkFAMAINDbL446LFMuOf92pbdt32NLwY9puziGWsRmZysoJm5UDAAAAaYMgFAAAI9TYLK9d6+nvf/aPqj7wni0NH6bNpu3xZOUV2rURbM73NG3dBuWUShlLNzjr31OW3TRsmXNa+4xih00TsUQ5a59XwRxbHBYSafMaFax7XiVLl0ilz6jEWU/ZOc5cqiceX6UnH39I98+0dQAAJBlBKAAARqgx4zL940PF8exf/0QnTnxgS+nPtNW0OZ5Mb57GjY8feEM/uAGPERDcQoJm6P55JdLFQ3ph8xvacdxWAwCQZAShAAAYwTLGZ8dNy2tv79Bf/eCHwyIQZdpo2mraHEtGZpbG50+wpRGuvkmduqTuS9K1Rud/Wpp0zW7CSHNKV1uk7sa90qU6datDV+vtpqTKlTezW411J2wZAIDUGFNw6/wbdh0AAIxAN65f07UO50k2jpycbD3zx99Q5YI7bU16MSl4pgdUvADUGOc/b/EkjR1Hv50Ak6Y3ZX62LZ3SxQ3fVZctZX36eU2cFlZnej09tkA6uEH1e25RwboH1XNuwQ5dfmmd2i/ZopsmFnpdp/vevbZk0syeknbs0rjHAq+JbIMR2UZHywGd2/hsKKBmUvSW3WIL0cc3IttgtO56Ss1HbMFtxzpNCA4R1lcbem6PbEPs/Y/7j6fku8NcU1MXo51R+whdq8D735SWxb9OiZi77CHdPVE6Xz3QXkyVeuTxMvkG/H4AABLD7HgAAIxwY8aMdXtD3bjabWsidXd3a9fut1RYWKAZd9xha9ODGYT8xz/5G7eN8XgLSpTRz9nwpix7TH+66h797icq7TJDOR8eUU27fcFwNud7mnpPhy5u+Lou739Z7eOf0OR7Z6n9YJXMvzxeq7mgaxWfUsktHrXU5Cvn0U8rsyYQGHlfV5z3tJy6XVlzr6jR7qNl/2vqDsYATfBkjcY77zn/8t842zzKfHiNPO0v64rbS2e6suYv1oTfmaqOl76kht3+4+XmX1DH6dPuHqLb2NJ+l/KndKrNttENjD04Xa3u+832T2jSg8vVuf/fbJAqug3mGAs19nygDSbA9GcqHfsrndn4PWe7OYfAe60+rpMb5Fp0SZcC73faWLosvA3mPBeqYNZnlHHK347OyX+okmnmur7vvsIfgCrV5cB5OPsJXoPg+3u5TgkqvXWmynKktvPHdbLRVvbLZM2al6erA34/AACJIR0PAIBRYMy4LI0dH9brJAYz4Pffbfh/dKXriq0ZOqYNpi29DUJujM+boAxP7+cVy7ldL+mVsOf8kztf0msXbWGYy7rjFrXuCvWmubZnl1rzZ8pTaiu0V+0b31TrtGXKWfqgJuiALgd7MSWgdLG8Ee/ZpLaDHcq7Y40t+7XuCvQI2qvOUx3yTAj0BlqinN+JbGO0jIqZ0sHnQz2Kjrypyy23yBsYlHtOgu2eNjfuuFZ9X6dNan5tk113HDmsVpUqM7jdOvNmsBdY1wenpPwyO8C6/zw7w88jhvjXKXGHd71xc2M5zcxxPtNOtdILCgCQYgShAAAYJcZmjtfYPgbu3vGvO/W/f+NPtGdvla0ZfObYpg2mLb0xAajM7J6JY4l69+U9OmlWWo5qm+24MvwtUWa+lLfseU1bF1hipddtUvOuS5owv1SXd4SlwCWipFCe/AWaEtz/85FpdUmQMSFbnvnrws4hPK0uMdf2rNPFM7doot2HO8NcUGLXyaQu9rbdaP0gPFD1XZ0JphTeonHOMdzxnNKWScNbpSfnSQc379Q+WwsAQKokPQhVNGOxVtxnl8qpYo4aAADSx9hMT589oi5euqRn//r/1vf/2w915MhRW5t65ljmmObYpg29udkAlN8JbTtwTm+/8RudszUjhRm76MyG8CVqnCKT7rbM+axNIOqxAcyCZ8Zviti/s4T3GkoCM3ZSxP6dJTQeU2K6Xgu89011z18XFYjq/TqZ8aL8Y2cFtr2pVv+mBPkHFU9v1Xp181a9cEia//hyLbK1AACkSnKDUIUVWlgm1b5Xpe1v16opv1zzywhDDU/Ferbsj1RVMttZn61/uv2PtCO/2L8pJv/r/2kAH/fXSpzj3P5ZPTvOVoxoA79OI8q4pdpx+8P6mi2OFCvzP2u/MzfJvT6B71+KeR9WVdlSrbTFkSF53zP3M3U+i5R8Z821t7/7/McZvO+E6RGV4cmxpfjeefdd/dmfr3cDQ2/vf8fWJp/ZtzmGOZY5Zm/cQcgLSpIQgPI7t2v7iEnD8/OndOUt6y2wtEQ595uByN9U15Hv+nsLfToylc4/E1tY+ls4k5aWv0ATogI6idur7haF0vfcgFhkCppJa/PMf0o50alvAWaGwLDUuaxP99VTKjoglMh1coTNPJj16dg9oeJL8BhJYAYmf/Lxh3T/TFvRX8fb5ZNHeQN9PwAACUpuEKqpRtt3V+loky2PZlMrdH7lVK2zxQhm2+rFUUuFfmw3u/Km6lh0XTrzLnL+pD2sjT5bTpaRFqxI1XXq0yAEv/rxWX2tcK7zALFPP7XlwIN++DK4gbp418fUp1+A1ARuew8KJ8o5vwllqrm8R9sCZec6RH4Wg/z9i3cfmfp0C5YN899PZoyojOx8d8DyvpjA0P/1gx/pK/+fr+n5//E/k9I7yuzD7Mvs0+y7r+CTkZGZ5c6CN5AxoEYTk4Z27mBpMA3NXdY+ExqnyMwYFzaeUtdvDqhz2oOaFhGIMul6p8LS1TaEBYScbbZnUShV7XkVxApYxdH1mhmTyjmmee9jhWp5yWmD3eYyaW1uL63Q/qetCwvmXHpWlw8quD3/8gZdPGO3ucx5hr/XOeeW0NhNRu/XKTBGVCjtMP/ygX72hIp9jOjeWAAAjCZjCm6d758AJJkKK7TizmK3R9SoDUiZQNPH2rV+21ltsFU9mNcsljZuqdE3bVWQCUKtzNHrsbYNEvOg+0jXv+j+FjkPpn+gkss/0+fjBE/Maxe2x98+YOYhr7xQr558PRiwGM5Sdp36ZIILvX+GNy3hz8r0rLtD+8NeZ4JQ63NPa32dDYaYHiJTylRzbrCulf/63Nlm7vcGW2eY+vuli/+sZ67aql6455FVrcX1qU1fCn03w9s6AOYzmyj998B1j3EdzLHW5tdp42B9B937aLreq4265j3a2ptBuN+Nm/39FP5+c89PaAp9BwbZtSsdutHdv8HIc3KyNXvWbN1x+22aPn2aJk2cqAlFE5Sbm6OsTH+ooKu7S21t7brceFkXLl7U6dNn9MHJD3X02FG1twenWktIpjdP4/Mn2BKA5DJjQ5XJV30Tg5sDAJCA1AShXMWafV+FyutqtP3ETT4oJVMwuNOghasrVGHqWmsjg0Xua8pVYIs6U6PJ+yIfTHcH3muEvz/6vUENPYNNMYNQUfsO8unX26q1OvhPcJGvaz5UrVlH7NOW2e/0dv26oFyfzHPeV3VJ8xc7bYo+T8eSh1erIr9VNZu2acDDZsZ9EPM/CC4Jzpod9SDrvm+uct1C9EOuCVTcG+M6tGpvxMNp5Ova6mM8mNuARkDka6KO03k48iEw8GB4UfqTQFtb3ooMMkTsP7p9YXp7YO21jYFAgC1EH8O8N+cDre+q1PoSf6JA+Psj3xsSeYyozyrqHE1w5U+0Q69m/UFwX6EAUaKflV+sQE2PIFTMut7a6A9s1dfnaYlzDdrq39J7ufc6r41sg7tPe42M8CBX7MCO2W+l6oP76Ps6mXPbqHtjXCerH5919Lbo9gdFtKP3Nobrec7+90YG42LV9fK9c+/HJu3Nmuu//udO684pzncn6rsV/56OvuaW2W9EkKaXNtg2l1x+S5oSeE3PQFpv90Pk/qPv5chjh/T+uujPM93cuNqt610+3bjeryGqU25sRqay8go1ro8B1QHcjBm6/9F58p7Zqlf32yoAAFIghbPjNehinfOjrFhF/oo0Uqy1q6fr4rYqTd5So5q8cq2dajc523avLNeFKrPNbp9WoWNzAn/8erVlZYUmHaq226v1a5Vr/SKbGtN6VrNMfZXzoGGCPu5r/PtJrEdTg+4zr99Wq2Y3cBV4f3gAKroNNbowr1K7g+fgmFauie9XaeMZrz652N+jqiavVJ/q32AGCYlOrQpYmX+/lnQ5D8Anf2aXqODL1T2639TXHlabrQo5qs8Ht5mHx8A+wh/wzIPmvSpzHuz8295SXckfRKZUuQ/8ec6DYeD9P4t6UA1//79or+Y6D6VR4/B4nDo3eOS8xrQnvzKUnmUCS+H7P9eqJeWx03PiXafe2+h/UF6b5TzA223r69XzGPn3+gM7bhvqlFuyKLj9p/Xmfc65dfofsmMd42vOdQt9Vs5rs+7tke6V67zGBCz8bWhVxYRAalQin1XAbK0tkfY2xQ6KhNvW7dzwnsLgA3zfbSzTEnMN3PO/1+0Fs7ElT3dm29c413l9SWuofc7rKqbESrUz90V4fas+sueRyHUyn0XgOvmPEf5ZzdY/9fJZG/7Py7TdVoTZ1vLPwW0moBHYR3iQKaE2Gs69+0h+nV7tMyjSoI+6nM8/K5CHk8D3Ln9u8PovmWK+O2+pxjNdK+w1TeieNsz3KzwFr6shLCDZRxscFVNMMMt/jI0tZc69F/bddvb9J+H3g7NE9pqy97Vpu60JSdLvpzQzZlymm543Nstp5JgxtnYIjR2jrNxCZZdMIQAFpNwJ7ThUL+9tq25ubCkAAPqQwiCUV7mm20iLGegw/dRUBYI6Ddp/RpqU7/8Dd92c6apordXGs27R0aD7qhpUUF7kH99p6nR9Mq9Brwd6HTlnt3pvrZqnFQ/e+E15RZqvWv11sA0N2njIp4rpYQ+aYefQfOh03ADY3te36Lmb6QXlPFQvzG/Vex1xHmTz74gZkEmKcbN1pw7rvwcfoo9qowmO5AQeNJ2HwAllzsP6jhjBEIcZn8kT/hDeoGcumiBTdJtN7wYbQLt6VO915qkk092gldnTpfD9+/Zpb2eZFvZ4Xop3nfpooxu0yQsbs8cEInb0PIbpZRIIRPg+cB6a83Rrj+BKPKZtzoN0MJDhXIfLdc73d3bk+DstbwUDJts6TqstLECUMO8dqug8re0xzzVKd1NYcDKRNjqfUyC45VyPyHG3Atc5LAjoez0iSFXT1eoPtJj7yhMWvArq/3XyfxbR90OsfSdLgm10mHs3t+WDnkHRGMy1Cerze+cIu/4R19zV1z19SfX2O+a2MSx4FZRIGxw150JBoZ+218X4fRTru5okCbYxHY3N8igju8AGo1L4Z0IcZoyqrNwC5ZRMVVZOjG6cAFLj+B69aGbK20xKHgAgdZL616W3rFIr7qtUuUkD8RRpsvO3Y9PFxjQMQjVofzDIJH1zX1Uolc1o7ow/jpPR2h7jX8YHUX6OCvLKtT5sYPP181L1JNW7lfmVqmipjhlAMb023N4HdoDj5AykHCaz0HlAnav1YYMoR6YqlarEuRfrugMPgTF0NvX9WUYETZyH+rpQj4mKrDy3h1BoEOewNKgw8a9TAm1Uq+q77WoqjCt2HsVDn5O7hKWLJY8/EBQefOiV+XztarLa2Pt1tpzj1p17S3UmcGOOG7hHBtQGE1Cxq66j+nztYSl4zyR5UOuE25h4jzTD3OdBfX7vEpHYPV2R1aqN51rdoN3KzDy1ddl50wfShoigpsP0xHR7qtl9JHvQ86Rcp6EzZswYNxg1LqdAYz05GpORcFR7wDKc440vKFZOqQk+FThtGPwAGAAAAFIrqX/h+eqO6WiLV7PvWawV95SrsK5Gb9elXwiqTwWeiFnt1uVHzcKTlxPZA8QEhezqoIlI9bNLxLhVg6FYK3LzVNMe/0E2kFoUSEVJeiDK9AAKpsLYJdgLJDoAEEN0b57wwEeCItKi7BKZ1tPbdUqgjQr1vPLzB66SKzylyC7hY2Mlg9vDqE77E/yV8LWcsqgg4c23sSwz/P4r1q1hc2a76X+Or+XIaeNR7e+arhUR193obxvMZxUVcAmkoTrL+vo8rU367GoJtLE/PdLc3lXOfR4IABm9fu8S0ds97U//c4+rD/RT3wduQLBHr7v+tsF8t6ODzr7Xg+/d2DVX65MdiLrp65QexppZ9Lx5yjABqfFejcno8cUYkDHOf+OyvBqfN0HZJWXyTpioTI/zBQQAAMCIleR/ZvSptrpK23fbJZ0GJE/QhjOX1Bw1RtTaeV7VvG8H9D7b4DzEFOvh8DGiPlbcM+Wtpd3Zz02MwdTaqQvOcRaGj/MUYNrgtPGPg20YODMw+dNrVmpAkwWbdDZFpz3Fk0iwJYarDc4jdZyUGZPq5JmrP4kb2GrQ9rbWqDF5wthUqUeC74+RstUHk+KTW3J/71P493qd+mijjmp/i8LGX7K9qsLSnRLjf7CPmQrkphiWRY6XMxC9fVaOuGNixeCOGZTfqr0XbfDkptvov87hY2X1TMd0ZFXqkSx/oKLGuV535hT6640BtMH/WcUP9gQCX/3lpg7GSLFLrI396ZHmvLbsXvd+C6aV9fm960ti93TZhEqVuYEv53eHpmthWMCw/22w3+22o3HPOSLlMFE39fspURV6YLX5Pb1KD8yyVUPE9Ewam+lRhjdX43InuIGpseOzNSZrvBuYMml0Jn3PBJcCzLqpN4OLm55Omdl5btDJWzRJOZOmyzOh1K0bOwg9rQAAADD0Ujg7XpoKzo7Xy0DhUTPcRcw854qawa7H7Hl+6+ZUhqXJhc2O586KF/1gEm/2vMDrep8dz6ipqtJ9Js3QvO9j7e5MeBWLFuvhZtP+bOf1ZjD28H3c3Ox4sWcTCzAPr1GpaVGzdMWe6cv04ogawNwduDuQUtT3LFXRs5FFHydyhqqo90e10T12X9OmR7TPiDyH3q+TX+9t9O8jNJNY1DXq0UZzTjFmF4s618hj9Py8wre77Quf0S7eTH9xP6t4bfLreS/EuA96bWPY/jND16Mi6tpHHifqXrJtD+7TPce5yo24JxK4TuHnYXrChN87Pe6Vvu9nI/KzMqLa0Y82xv3sXD3f2+M74erZzuD3Lux+DF3/0h6ff2/3tH9b6NoErmv82ev8Qtv7uAaOPu+5Hp+VEf15OeLe80ZvbUzcvOWr9PFJmWo+uUUv/8ZWpjFPTvh1BQAAAEJGXxAKydHrgyyCuE4u94E/PIiFIZNIUBRp5hMr9fTtHp1/d6t+eczWpTGCUAAAAIiHIBQAAGnpbn1mzW0qUPewCUAZBKEAAAAQD0EoAACQNAShAAAAEA/zHwMAAAAAACDl6AkFAACShp5Qw8ES5axdpwktb+rMa1LBugeVeXCD6vf0d4qSVFrjtst/N3Xo8kvr1G4mzEwq/zHcc69ZrJLHFqh711NqPmI3J9PMpXqiskRZJr22+g3tOG7rAQAYZegJBQAAgDSzSc0bntKZDW8qbFLfKCaY9rwK5thi2pqh++eVSBcP6YXNBKAAAKMbQSgAAIBRZa+6W6TOy6ec9VO66qx3N6ZTL6jBEnbul+rUrQ5drbebkipX3sxuNdadsGUAAEYv0vEAAEDSkI43ApQ+o5LHCtWy4bC8gZS4lgM6t/FZXXNfYISny0mdPdL5bMpfvi3qlC5u+K66bClj6QZNmbBLZ17b5K8IHjP0Gj9znGW6GpWOl/Xp5zVxmi2EiWxH721I1NxlD+nuibqJNLpKPfJ4mXyk4QEAQE8oAAAw+kxZ9pj+8uufD1se06cn2o1w3KKJbvDHpsTlL1BuMO3NBHf8YymdsSlz3fPXRaTFZSx9yj/mlLvdLP0P/vSm6zWzzw263CK17goc46mIQFiq2wAAAPqPIBQAABh1zu16Sa+ctgXHyZ0v6bWLtgBX665A76NN8p2RMouWuPUqXSyvDuhyMOCzSW0HO5R3xxpbtqbNVZZdHTJJaMPhXW/c3FhOM3Oc69WpVnpBAQBAEAoAAIxO7768RyfNSstRbXvfrULQKfnCZokzPY+CvYxKCuXJX6Ap657XNLtMmZ/t32Zd27NOF8+Y3lT+7SVLbQBrEA19G0wa3io9OU86uHmn9tlaAABGs5QFoYpmLNaK+ypV7rEVAAAAaeWEth04p7ff+I3O2RokyIwRFUxzs0tgfCfLnzJnFn+63lAEooa2DdV6dfNWvXBImv/4ci2ytQAAjGapCUJ5pmpGmV1PN1MrdH51hX5siyODV1tWLtbuqbaYkNn6p9v/SDvyi6VxS7XDWf8nr92EpFqZ/1lV3f6wvuasf63kj1RVtlQr/ZsAAEPs3K7tpOH115HD7hhRExIO6Phnoeshv0wZ7soaFTy2QP3/d0v/LH890gBjitOGBJiByZ98/CHdP9NW9Nfxdvmcs8sb6PsBABhBUhCE8qp8drkKbQnDlz948kehJc2CJz3a5ywE0gAASLVNarY9iwLpeGYJDUxuBi4P1U9bt84dIDx80PBre57XZQVS+pbp6q4D6rTbXHO+Z99rZuDL1oTHzPoG5ZTa7VbXa2+qddqD9rXhKXd9twEAAAy+MQW3zr9h15PCW1ape2d06OiJbM2eIR19u1q1EX9VDDHTE2qxtHFLjb5pq4Y/0xOqUhPfr9J9Z21Vn4r1bNkfqOTyz/R5n+kVVan62n/WM1ftZu/DqpriXKeTr+untirdmCDU+tzTWl+3R9tMhdvmMtWcM+fkviQ9mHZNaHLbKdPmrGotrj9qNwLAyOLJCUzaD8DPjA1VJl/1TQxuDgDACJHknlDFumWGV00nTsudTGUYWDenUudXL9axOeFdaIq126kz9T22xUrnC68z6yunap27IcQ9zqJiWwodN7BEpNLlTdUxd39h7eixz/A2VuqTMf/mv1ufWbNaTz98ty2Ha9AzdYFgzVF9/mRYAMrxtZwyqeWDXgJQJnD1WT07zhYdJtXMTe9zmSCX2e5P+/P3VPKnpIWL7M0Utd1NEzR1YfvorTeW73Wtr29VxYTAa0wbIntHuccrmW1Lg9RGp12LbaBsW8s/E4ACAGBUaZOvO1PeAlsEAGAUS2oQqmhGhcpbanWwLp26ocRnAkHr53Vo45YqzToSaLPpVVShSYeqNdmpn7ylRhfmVYaCRGcbVKNiLQwLGv14erF0psHfs6qlXc15Oapwt8QxtSJ4XPcYVQ2qWFypLRGBpGKtXT1dF7f521CTV661wWNGt7Fav261m5Lkp+11Uv69YQGbgcjTknLTw+pnWnzyZ9rYUqa14fvzPqz1Ja3a6Gwz29fX52ltjyCT8x63l5Z5zVuq8czV2l5S7rZ1OxfCU9j79Y8w+G0EAACjyQntOFQv722rbm5sKQAARoAkBqGKNdEMRp5frnvvW6x7Z5incK9m35OeM+SVBwNQUWl5eUWar1r9dTAo1aCNh3yqMIGmmOViLZzm068PNfiLrZ264F+L6BVVUeBVc3OHs+bVlo8Vq/nQ6dBxz9Zo4xmv5k+LjFzUVFVrtRtcatD+M9KkfLt96nR9MqKN8byjlzdt0XOvv2PL/WB675iAiglExekhlIiac6EeVm5gK6s4GMAxva1qzoXS/ba1VKvGM10rwnpXGaF9HNX+FqksM9SjrIfuJrXZ1UQNehsBAMDocnyPXjQz5W0mJQ8AMLolMQjVoKO7q7TdLm+dMAESX/qNCeUq1ifneUO9l8Ll56ggr1zrg6lui7XevDbMhjOX1Dyt2KbfFavizGkbLDI6dLE1W+V5poeUVNMc6hV1oSUUNApfj61B+8PGd/rmvvDeWoPFpOmF9RCKSr8bkGAvpWLdmiVVTAmkuZnl3hg9mOq0P+y0f1r/M93fYgN+sWQWKteuDliq2wgAAAAAwCiUgtnxhoMGtwdUzbSKqLGgrNZarQ+kygWWfWFBhdZGHWz1p+SZVLya0+EBB59qm72amO9sL2jXxtNyXudVeYFPF8OmBg72anKZ7XY1Tf20/i3VKE8lmbZioDqbnP2EmEHETZArtESOTdVf7lhWUcfotxS3EQAAAACA0ShlQShfXbW2707HXlABDbpvW60UPt6TYcZ8yivXH8cKTgX5tPr9BlV8rFIPF9RqY6wZ6fI9Um2jNrS0a9L06ZqY16Fat7eUT7+q9alg3vTQ4OYmvS6vQa8n2tPJHXeqVJ+yY0j9eNFABibvJ+8dqlCr6rtt2RUKSpnBu9fm+9djm61/mlKmtraj/pnsnOu/va1VFVMGluYXi78Nrdp70c6WZwVT49zxnWJeKCv1bQQAAAAAYLQapT2hrNazmuUOCr44bOa6Bt1nByMPpOOZJSJQZbjBKq8/0GSrAmqafaqYV6qLZ3z+XlMFxapobQ/2rtlwpFrrD2VrbWD/i7P1621RY1P1xmn3Xx+SPrnS//6Hm6u18YzdlhT+WeVCKWjOMiVPe2vDewAd1efP1QVT1dZnOW0I6+kVEEplu1dl9f8SkaZmZopzB/oOP05vs9/F4pmr9fa9/gHEw9vYoGcuHpZK/sC/7wlN2ljfcwT3lLcRAAAAAABoTMGt82/YdfRLsXa7s9cFBg9HJBPI+gOVXP6ZPj/YQ1klbDi0EQCGF09Obz1OAQAAMJqN7p5QN+HHiyqiBiQHAAAAAABAPASh+unHi/wpcGsLarU+fLByAAAAAAAAxEU6HgAASBrS8QAAABAPPaEAAAAAAACQchmewknr7ToAAMBNGZc13q5hJMtYukFTH/6EOvf/mzI+/bymLLxd7QerFNm9fo0K1v2pSitibUsH/vbljb+gjs4/VMlTX1Fm+8u6Um83J8milav0u3fN1oJ5zlJRoqtHT+uS3QYAwGhDTygAAAAMvjnf07S1zyjDFkeyrouH9MLmrXrhlT06bOsAABiNCEIBAACgX641XpJamnTNrF/ucNbr3PVIm9S84Smd2fhsjG3p4JSutkjdjXulS3XqVoeuJrkXFAAAiMTA5AAAIGkYmByGSdebMj/bXzjzps68tsm/bpQ+o5LHFshjiyGndHHDd9VlS25PqWW32EKHLr+0Tu02j83sf4KOq3v+AuWZ9+2SJprXRhxriXLWrtOEfFuM3n+C5i57SHdPlM5Xv6Edx21lP5h0vFs6D+nFXSdsDQAAoxdBKAAAkDTDJQg1Zdlj+sqCXFsy2vT2P7+k1y7aIpLCDUZN2BUZhAowQabfadK5WD2l3EDVTPkCgSc3IKVgEMkf5JIuv/S8dP86TdABndshTXisUC3hr4l37H4gCAUAQPKQjgcAAEadc7te0iunbcFxcicBqHSSUTFTOvh8sOeTjrypyy23yDvHlo0zu4LbW/8jTsrftLnKsqsDdXjXG3ph88ACUAAAIBJBKAAAMCq9+/IenTQrLUe17X23CmkiY0K2PPPXadq65+0SnlaXmGt71unimVs00e6jZOkSuwUAAAyVpAehimYs1or7wpYZxXYLAABAOjmhbQfO6e03fqNztgbpo/PgBp0xA5uHLc1H7MYEdb0WeO+b6p6/jkAUAABDLMlBKK9yzfAKdTXavrvKv5xo8G9KM+vmVOr86sXaPdVWJFPeVB1z9m32f351hX5sqxM2tULnV07VOlsciMD5ucuiYRoITMJ1AACgN+d2bScNb6jUN6kzf6Y8pbYcpuuDU/LMf0o5MbYNjH8mvIEwY0I9+fhDun+mrQAAAAOW5CBUtrLzpaaODlseuSKCPKsrtSV8HNbWs5q1pUqTt9Wq2VYNtg1HqjXZacP6Qz5b09OPFwXab5fhGqzqw1cXn9C2Oek5OTQAACOPmZXOnwLnzpA37UF/St2n19jt1qVndfmgGUw8kHL3vdD4TUe+qzO7LoVti9rep1Ab/Ms6TWh5U/V79trtAABgKCR3djzPVN1zT7kKbVFq0P7dNWq0pZHCBG/WTmvQxi01+qZb49WWRUX61b6z2uCWLdMjamWOXg++LkGmB9DH2rV+W9T+BsAEy9YXnNbkfZE90tz68ktJOUbKJOk6mCDU7zfdppVHMmwNACBVhsvseMBgYXY8AABCkhqE8pZV6t4Z0tG3q1XbWazZ91WovKVWb1WfVfz+OIOtWLtXV6jCXffp19uqtbrVLYQJf42jtTYUCHEDS6U6GPN9UXoJQrlBoHleW5Jqqqp031lbsMGXjbWlWmtf03yoWrOOhF/FqDaeqekRaDJiB6G82rKyUvNro/cZxbRjcaB3VKxr1XsbTLDu4eZq/bVmBc814jxdvVzrhK6DY9Yyrb2rVLrwnjburLGV0oo55/R/OO/v4cw0La3yuKuBANWzuhh8bc3eGfqCbaO7j8IJwdcrr1XbHujW/9pcpL/11zjtbNSeJYFQa472/nKKvtXXvQEAIxRBKCASQSgAAEKSmo7nq6vW9t0mAGVKDbpY5/zIz1Eo1JIOGnSfSZXbUqNQuCLSjxdVaNIhfzqbu4T1xFk3rVQFrZf0q5sJMkyt0Pp5HdoY2H9VgyoWR6X05ZVrrQkeucevlebNitj+40XF2h94vzmXaRX9GN/Kp1/V+lQwr1LH5sT5dEwAbXG2fr0t0MYOfXJl5PhWibTBHMMNgjmvMamBFR8LH+PJH4CKd61d4dfBuU4F86YnPMbW9iNTtHTzDG06I7W9f5u77i6BgJKV+7EP/YEmZ9tfvJ+jivmtWmG39ckEpZZc0d5f2n3vHa8lDzTqq3YzAABA1sR5evLxVXry0aWaa+sAABiNkj473khRUF7U94DY4QOQJzyAtldbPlas5kOnQ72jztZo4xmv5k8LCwiZHkGBXkWtjTrYGrn9m/vCe1c1aP8ZaVJ+4uE+d8woN7hlx7aKar8JtunQsVDPp7On9evWYi0MCzIl1Iaw89hw5pKa83KCvZ7WzZmuCmf7X/fWGyv8OpxtUI2yVR79j+zHdmnjpi0RvaD6pXWS/sIGprafyVVbXneoZ1YfVkxrk96fGOr5dLZAe53P6+5UDHgPAACGnX3btuqFzXZ5ZY8O23oAAEajpAahTDreivsqVe4+zxdrYpnzo65h2I0J9c191fq1yrXeBpji9jAKDEBeFZ7qlpgLLf1JUPSpNnqEc5OqFgiAOcvaaba+PwLt3xI431BPp4oCr9uLKXSMSn0yOviTQBuaaxtDPZvc44UCV+YYau6M7Pk0BNpOZWu7XVdrnlaGp9r1oaKw3e1JtefxE3b5UEvIRAEAAAAAoIckp+Md09EWr2bfs1grAuNBneh/gGbo+bQ6kIa2rVaTFocCURtaOqS8Un3qJgMNkT2GvCovsKsx+bcHA1duqlyxO75SII1t4xn/poFxznevmckvspeRGX8psP/AEhzPKQltqGnuTyAufUWk+tklMKYUAAAAAADwS3I6nk+11VXavtsuaTUg+QC1duqCXXW5aWlefXJJoul30QLjMYWNbTR1uj6Z16DX46Wl2e37IwIbPl1ssatTKwbWEyqMO9aVOlRr08q+edqMvxQ5DlVPN9cGNz2vX2NZxWEGJl+zWmuXx06iq2nKUe4tHYmP8xStoNu+t1O/eOCCct11v7+tLVLuxy7qR/R+AgAAAACgV0mdHW9YMClkwRnfAsJnfouarc0Ra0Y2M/NbRNAlbFa36Jnv/Bq0MSwVLfI1UTPP9Whj5HuNiOM7x/51c7nmNwfa6Z/9rkf6XHD2up7nGOsYfbWj9zb4t5vZ8Xqdgc+dQbBcwY5gYdfRPf7H2kNlt93TdTF6lr44s+OFXNOPHghLk4sxO97KIxluuafw9+Zo795c3bmkt9nxjCJt6kdKHwCMJMyOBwAAgHhGXxAKAACkDEEoAAAAxMPseAAAAAAAAEg5glAAAAAAAABIOYJQAAAAAAAASDnGhAIAAEnDmFDonxm6/9F5mpwpdV08pBd3nbD1AABgJKInFAAAAIbE3GUVmqx6vbN5KwEoAABGAYJQAAAAGBL5nkx1Xb6gw7YMAABGNoJQAAAAAAAASDmCUAAAAAAAAEg5glAAAAAYAjOU55V87YwFBQDAaMHseAAAIGmYHQ+JWLRylWbmd+t89RvacdxWAgCAES/5QSjPVN1zT7kK3UKD9u+uUaO7DgAARjqCUEjcDN3/6Dx5z2zVq/ttFQAAGNGSm45nA1At71Vp++4a1apYC2cU243Jcrc+s2allthSfBV6YPVqPb1mtdYur7B1AAAASA8n1OqTvDkzbBkAAIx0SQ1CeYtKVagGXWwypQYd3V2l7Sca3G3J845qLnhUsXqZ5tmaWOYtn6PJuqTfbtqijTtrbC0AAAAAAACGQnKDUNleqUWaWLlYK+5zlsqpcmqS7tDOrarxlWpBLz2cCryZ6mo8p0O2DAAAAAAAgKGT/Nnx8oulj2w6Xn657k16Op7f3hOXpEm3JZCWBwAAgHTU0tmtLE+uLQEAgJEu+UGoYDpehzpanB9lxSoyxShlK57SD7/z1bDlKT062W5MxLFzauzO06RP2DIAAACGlcO7anTee4uefHyVnljG2FAAAIx0SQ1C+Tp8ds3wqa3NrsZQt/15bf7IFhwn3nxer5y3hYTUqMUdzDJWSl6F8r1OC9oZCwoAACB9ndCOV7bqhc1b9eKuE7YOAACMVMkNQjVeUpOKNaPMjARVrIllzo+6BjW6W3v67aadzp8ejuaDeq3areqXZl+3sryRU0EvedjMiDdHOrhFL//GVgIAAAAAAGBIZXgKJ6236zfvaqvONmdr3pzbdcctxSpoqdVbhy/oqt3c0yWdyy7T9X/fpt/20msqnplz5yvPd1oHPwzNwHf6+GFVv39DM373dzU/77COnrUbAABAyo3LGm/XAAAAgEjJHxOqqUbbd5uByZ2l+qzCE/Riqdv+Sj/T8AJ6S7nrLVUPAAAAAAAAgy0FA5MPkllTVJTZqguk3AEAAAAAAKS9YRuEWjKjVLrwofbaMgAAAAAAANLXsAxCzVu+ShXeSzqwM/7sd7EGLQcAAAAAAMDQGIZBqLtVMalTNVt26ZCtieXQziM6771NT69ZrbXLGRsKAAAAAABgKI0puHX+DbsOAABwUzw59EIGAABAbMN3YHIAAACMWhlLN2jauu8py1nP+vTzmrb2GWX4Nw2SNSpYt0E5pbYYQ+rb6NX4v1isoq8XOetF8v54sfLWev2bYvK/3vspW+yHcV93jvPjBRo/KhIMBn6dRpa+r4O5L3q/59LP2LUL7HfmJlVMVZ7znUvKvvriHmuWxtliD31tT0vJ+565n6nzWQzGdzb6nk/a/XRTwn7/2/synX9/EYQCAAAAYil9RiU2iDQifKpcOarVlV/ZcrIMywfgXqTqOvVpEIJf/fmshuw6jAzJDNCNe6Bc2l+rq7aM/kji98r5/nhvbZRvo89WYCAIQgEAAGDYudZ4SWpp0jWzfrnDWa9z19NJ6tvo07UGqbvePBD5dL1Vunox/sPRuLlF8r11VtdtuT+u/k2VGr95QFfizws0YtzMdRpJuA59qDmr1m8634u/abQVqVKkTAIfvbq+8YDz+6lKvhQHTMcuLEnTYGDY7/8an9O+Dl2vtZvSEGNCAQCApGFMKKSHJcpZ+5S0Y5fGPfag/HflKV3c8F11uet+Jl1uyvxsW+rQ5ZfWqf2SWTepdoH3hYt+zTJd3XVc3mUL5DFVLQd0buOz/Qw0VeqRx29RQcspvbCt2talgOkBsy5Xvm8ei3qAMr0EKhX66jaqJfw17vvKlekWora5KSCznD1E61D7hvCAVeTruvdXqzX6gfpTs1T0UCilJfo1pldJ/q22EL3/4LldUmbgOK21avo/wgIoEfuPbl+YuNfJcTNtNO+de0lN9dNVuNB/z4W/P/K9IZHHiPqsPjoWEQAxaUE5qpGvpDK4L98bgQfzRD8rK+H7pT9tNG0o1fX9HuU416B7/zF1zZrlvDayDeY8AtfICJ2Df99j34oONpj9Ttf14D76vk6FJafVolkxrpPVj886elt0+4NitSP4uujvVkigvT2CXVFt7Ov7GdFO935sU3txuf/6v1GvrIec73nU9ybuPR3v/jD7vbctbB+9ffcDn+cx6aHAa3peh/j3gxG+/573cjK+VyHR95lfIvdTb+dgtuWoXlcXljstcc7/DSnffK4R7Ui0jcNDhqdw0nq7DgAAcFPGZY23a8BQmq6s+Ys14XemquOlL6lh98vqnPwFTazwqKXmff9LSp9RfvHruvTy36hl/8tqH/9pld41S+0Hq3RD7+uKU9dy6nZlzb2ixg1f12VT3v+aujv8b5fmy7NwrgpuDWz3aMzSTyqr/WVdqbcvSchkzZpXKM+VZr33wXlbl3zjPvcxZZ44ps6DkY+5Y9fOU/6Yk2r8y+PybTvjLA2RPV8aWtVl6j+8oXELs3Q1YrvPKQe2XVP7N6vV7u7jgttDy888PDnHPlit5v/+obOtQxlfcMrXzujqSfsS92Ha4zxA7lfbRvP+M+oKa6d5SCuYfk5N3zmsDmfbleLJyn+kUN2BthTna/zCycpema0udx/Oh/TIHRoXOIZ5YF6Tr87A/q8VqmBNSej9YeJdp5tu4+0l8n58ujxd9lpfy1HusoLg9uu/Mft01pdM1rV/rVLr3/U8xrivf1x5Pufh0/2snNc+9DFllzUEXzNm/mTlLJyusSf81/pKcbHy7hqnK//e6tzTiXxWIfGuQ2Qbzqh71nRldpwPtqH3NnqVuXK6ss012DvWOf/p7rn6Mm+Xp9C+xrnOE5ZdVUugfc51yn9omq5/aNp5VWPunK7xY0Ln7Gf2W6Ab+/3nksh18sydErxO/mOE3w9F8n612N5LPT8Hw/959Tx/48bBC8FtwWOYc/lNKFAVfZ5XiqepYHXgswpXJM8XCtT1zx9Ffk7R93SP72cf3zv3fvTfa+b6533c3BO1uv6Ic13ca93HPd2QqYyVxRpjXxtk9ntLlzrd8+jru5+pcb/rfG8/FvjemmtWofxPdISulXOeuY+MDbtfw35vuOx97exbYfdAQDK+VwFj11Yor+u02t4I+xwd0fdT5PfO0es9HfjemmtwyDn/25R3yyU1/aJZGZ+aoOv280y0jcMF6XgAAAAYkVp3BXotSV0fnJLyy0IDg196Vs179tqCdK3muDrzC/s5cLjpGRXoXbVJvjPOY1XREreUuGq9unlrantBOQ+ymbd2qGt/5MNT0K2lqRvPqaJIWapVe7DXQaOu7O+Qd26gB4fzoHpvkbr310T0Lggp0njnAS08Lez6xhq1tzrnFDXGi++NQA+FRnV/5Dy4TfT3j/Cn0ITt/1dOe2K8P/51SlIbTS+TQO+FX11yHp89ykh4oHfTtka1BHs/+HTlrUZlziqKfKD76Fiwh8f1/fXqzssdwANfnOtQ4R8PJ9SGaIm0sUPtv7TbnesROd5U4DqHpTv96phaPspW1kL/Z3m9PhAFNgEOO85Phde5fzud77Cp7/918n8WUZ+VQsdMBTfV8Y1Qj5/rG0/Ll1eizOj74VOl8rY6n2PUfecfIyre/ejo83vnCLv+Edfc1dc97U//cpmA2I/944yNneiRGpxtbn0CbXCEvrfS1cPO59bj91H0Z5NMCd4vzv2WOcu5HqZ9scT93vV9T7s+Oh28Bj1TYBNt4/AxXNsNAAAA9E9EkMmk7D2vaevs8phNqRuBxq6dLm/YQ044M5ZKy0dFyjezfAVmV0qm8lxl5pWr0O7fLJGpSl6Nzet9LCsTuOh7fJNGdYcFNMwYVoGHwrEl2cpcWBk8ftGPI9PJAuJfp2S18Sa4gZbQ5+QuEalYydPb/dKrJLWxt+t8/WKnMkuce7TCeQBvcB7KbaBRrW028DGQNoQFVFyN8m1wPszgPZPsQfe9yih2/vehsDaGpayF+AMYAxqXq8/vXSJ6u6fNeHTZGlvu3C8Lc3X1IwUDqv4x6hwDaUNtm7rtqsuMu/VGY+ha/cXU5AYwEr1fbnKQ/t5/d/RhEL/7gyWpn2HRjMVacV/0UuFcMgAAAGCI2UHCjaxPr9MEHdC5DU/pjFleOqBOu21k6eNf8B3+QcfNckxXnQfvpAeiTA8gd/9hS9i/6kcGAGLxP+yG+INC/WHGgIk4vrNEjivU23UanDb2rVEtUefQGD7uVVL0fb/07ubbGOjB5ucP2ASZIEWx81BuercdrtX1kiLnuucqM9D7xtXfNpjPKirgEhh03Fma9nuUn/RAlHNXvRHVxuiB/01PorzI4Gq/9Pq9S0Tv97TplTZuYpFzvzjfr1+2aexCZ3tJdmTApb9tMJ9lIKAY8Ktjwfe2NJSrMNmBqATuF9NzrftYY7/u43C93tMJGYzv/uBJ6ufXeKJK23fb5T1/MmbTidPOJUOkScr/+xUqc5clyp5jq1Nh1jKtXbNaT69ZpQecXxAAAACjzxoVLLtFnaeqIgcND85Wt0Q598foCXWpTt26Rd5U/q3mDky+Sk+urLTlJOvXv+AnEmyJwZ2NKU7KjEl1ynPaEDew5XMe7jrkfSjeQ74/tc57b+jB0+2p0yOVKz6T4pO5sELje0t96/U6pb6Nfv7ZDqPTlVw1jepqLVL+12/yn/d7+6yM3q5D1HvNmEERgz7fdBv91zlzYXnoOpv25PWcGS6jpFPdv3Kul0o0fq4n1PtmAG3wf1Y9U94CTO+rgTBBmtgpU33dT37+lLvYM7FF7rtI3uDkAVaf37u+JHpPezW24ZKuOveGZjltKA4L5vW7DTZ1rZdgTygdsz9u8ntl01AHNjth4vd0XMn67qeRFM2O51V5ZaVmO7/A3qo+61x6xGaCUXfo6k/2quOIrQqYc5uKvpGvti8fiJjFpX8q9MDqO1XU+J427uxvf1oAAPqP2fGQHkyq3TpNyLdFR+fBDaoPGwPKDExeEpaC13rwgDLnF6olagY9zfmepi27xRZizI4XLJveVc8r/3LUcfqU2tnxzOxQ3vrI2btCzLg6UalpUbMumUBDzxQa86/yMWbFCqaIRM9SFTlDltHX7FHRM45FznIVdXwzJk28Ge0CItpnRO6j9+vkd1NtNMfvMWtYz5m2oq9Vr7N4OcK3u+0Ln0Ut3nXp5bPq8zqEv9e5V8xsf2ZGvsTaGHbO5aHrMTbqmJHXOc69FLhPbXsi76cErlP4PW1664T3Kulxr/R9PxvR90OPdvT13YpoR7z7IyB836Z9pzV2Xam6Iz7rnu0MXqew+zF0/b09jtnnPR127f2vjf7d0Esboq+PI/oa9rhGcdoQKfrzMiLbEXmcBO6XWLMTWj22x/jeRZ5HZPtC7/e57XBnf6yN3kff12o4SU0QqrBCK+4sVu17VTraZOsQQ6qDUHfrM2umyffuVv3ymK0CACCFCEIhPfiDUOP+4yk1R/+NNZokEpwB1ymA65A2+gp8YLD0FQzEQKQkCGXGhlpY1qD9u2uUdl+bYHDnvDx/v0C5pq7luC5868Ow7tkmOGS3OTr37VHjL9ptychR9o+WqjD4r2sXVB8WLMr4whJNmviB6n5wwV8RN6AUKwgVeeyQNjX19roe52AQhAIADC6CUEgPBKEAAEhHPVNUb1qxJpY5P+oaeg1Ala14Sj/8zlfDlqf06GS7MeUmqcQN/mxX3ZcPqC1/pnIetJvcANMCjdu3x9nm33510VLlB7ebINMCFdYfsNv9rxl4b6VoF9Ri9vmT4+p0g1uBY0T2lsr6dngbnaVHAAoAAAAAACB9JD8IVVgsM4h+bb1/YPJ46rY/r80f2YLjxJvP65XztjAI2l4JBHUuqPOkNG5yjluvORPl0XE1B3s+XVD7vjbl3jnJlq3bJyvLrg4Vz9yJYdMMxzArV151qoVeUAAAYFTZq/aN9IICACDdJD0I5c02A2751JHAJAK/3bRTJ8xK80G9lvxxGHtxQZ1v2lVH1w+2h9Ltbs2XJ3+mJgVnr1uhSYsik+Ou/WKv6k+a3lT+7UVfsAGsQdT1gz1qUqid4T21/Gl4q/X0fOnApm3On2EAAAAAAABDKwXpeP1xWK+9c0Z7/2WX6mxNWjDjKwXT4OwSGN/JMoEr/zZ/ut7gB6La1fEt24afHNe4R8MDUe/o5U1b9NxBacGalVpiawEAAAAAAIZK0oNQvrpqbd9drdoEekIZddtfGdQ0vD69ed4dI6og4aBSm6622NVwJdk2VW6S8r8xMzj9b8KOdOiq815PRA+nONzXxnCsTT7nyPmzbBkAAAAAAGCIpGR2vLQWd6a6cD1nqGt7Zbta3BS+6JnxHCcPRPWUCn9Nm5peOSfPo2HHfHCByh6NGmOqx+x3jojXhW/v2b6eM/gZzI4HABhczI4HAACAeEZfEGpUIQgFABhcBKEAAAAQzxCPCYXUapWvO1PeQlsEAAAAAAAYIvSEGulmLdPau0qVpW6dp0cUACDF6AkFAACAeAhCAQCApCEIBQAAgHhIxwMAAAAAAEDK0RMKAAAkDT2hkJCZS/VEZYl/uIDqN7TjuK0HAAAjGkEoAACQNASh0C8Ll+vJaVf0zit7dNhWAQCAkYt0PAAAAAyN/Y1qzhyvfFsEAAAjG0EoAAAAAAAApBxBKAAAAAAAAKQcQSgAAAAMkTb5uvM0caEtAgCAEY2ByQEAQNIwMDn6b4buf3SeJme26vjmndpnawEAwMiT9CCUt6xS987w+gsttXqr+qx8/hIAABjhCEKhfyr1yONl8lW/oR3HbRUAABixkpuOV1jhBqBq36vS9rdr1ZRf7pSL7caRZpLy/36Fyn50mzJsTVqatUxr16zW02tW6YFZtg4AACBtdKqVABQAAKNCUoNQ3uxs53996uh0fnR2qsVU5npk+0WNLg8uSIMAVYUemF8qXXhPz23aql8es9UAAAAAAACDLKlBKF/jJTXJq2yPU/B4lO/8aLrYOELT8S6o5cvbVfetD3XN1qSfPHkzu9V4tsaWAQAAAAAAhkbyByYvrNCKO/0peE0nqvV23cgLQWV8YYkmLcr1F04eUN0PLvjXjTm3qegbM2XicJEuqP7LB9RlS25PqUcn2UKbmn6yVx1HzHqOsn+0QDrcrsJFznZn//VaoJLbnVe9sl0tb7pvcJh0wAWyrZBajutCj4DY3frMmmnyvUsvKADA4GBMKPTLwuV6ctoVvfPKHh22VQAAYORKbhDKBqDMmFBHm4o1+74KldfVaPuJBvuCkcUNRk38IDIIFWCCTMtbYgSGHG6gaoo6A4EnNyAlG6QyQailKtRxXfi5VPCNmdK+PWrWgohjZX17hXIv7lHjL9rdcmwEoQAAg4sgFBIyc6meqCxRlrPa/OFWvbrfXw0AAEa2pKbjFZWYHlANuthkSs7POudHWbGKTBFBGYumSPsO2J5PjjdPqKllkjwP2rKjbWcgeHVBbXECTZ65E3sfc2pWrrzqVAsBKAAAkE6O79GLm7fqBWchAAUAwOiR3DGhOkzqXbEmFpqS87PM+dHSPkLHhBq4jIm58ixaqjIzu567LFWhGUCrH7p+sEdNmqlJdh/5YQEsfw+o1Xp6vnRg0zbttbUAAAAAAABDJblBqLpq7a+Tyu9crBUmFU8N2l99liBUDJ379qjODGwetoTGe0pEuzq+Zd/7k+Ma92h4IOodvbxpi547KC1Ys1JLbC0AAAAAAMBQSWoQymg8UaXtuwNLjRpt/ajzUYs686do/BxbDtP13gV5Fi1QdoxtA3KkQ1ftaoRjbfLJo/xZtgwAAAAAADBEkj873ohnBw6PTp+LniXPETGLXq+z4xmB7f79j9u5XS0fmQHM89Xm1F+LGAQ9amY8h+lZ1XOQcgYmBwAMLgYmBwAAQDwEoUY0glAAgMFFEAoAAADxJD0dD+mkVb7uTHndgeIBAAAAAACGDj2hRrpZy7T2rlJlqVvn6REFAEgxekIBAAAgHoJQAAAgaQhCAQAAIB6CUAAAIGkIQo0SM5fqicoSZbmFbp2vfkM7jrsFAACAuBgTCgAAAP1zfI9e3LxVL2w+pWZbBQAA0BeCUAAAAAAAAEg5glAAAAAAAABIOYJQAAAAAAAASDmCUAAAAAAAAEg5glAAAAAAAABIuaQHobxllVpx32L/MqPY1gIAAAAAAGA0S24QqrBC987wqva9Km1/u1ZNZRW6p8xrN2Lw5Cj7RyuU/6AtAgAAAAAADLGkBqGKSkzPpwZdbHJ+dDbqfItUOLFIhKFSgUATAAAAAAAYPlI4JpRPbW3Oj/wcglAAAAAAAACj3JiCW+ffsOs3r7BCK+4sdtPxjjYVa/Z9FSpXg/bvrlGjfQkcDy5Q2Z3ndeHiHZq0KNet6ty3R42/aHfXXeY1j06yBantle1qedO/nvXtFSq53b8eLrQP00tqqcbtPCA9ukD+I1xQ/ZcPqMtdBwAgNTw5eXYNo0OlHnm8TL7qN7TjuK0CAACII7lBKIcZmNyMC2V6QjW1eFWoWr1VfdYpISgQYDp5QHU/uCDNuU1F35iizp/sVccR84JJyv+21GK2Ge7rFRVECgSaQsGpEP+2wvw2Nbn79Jc9h6MCXQAAJBlBqFFi5lI9UVmiLLfQrfMEoQAAQAKSno7nq6vW9t1VzlKtEyYdD7G1HNeFQJDpyEV1tuRq3K3+oum1FAxAGW+eV5tyNG6OLSeo7ZVAUKtdVw63yTPR3ycKAADgphzfoxc3b9UL7kIACgAAJCbps+OtuG+xZheaQrEmlkm1H9ELKlHjJufYNX/KXdnfB5ZASh0AAAAAAMDwlNwgVNNpHW2Ryu9crBX3VSj/RLWOmpnykJCr5/2pchlfWKKS280YTttV5y4HRKcyAAAAAAAwnCU5Hc+n2mqTiudf3q6jD1QiMr6wQIX5F9QZPrZTS4uu2dWsb8fqCdWuq/VS7p2hwcsBAAAAAADSVdLHhEKC8mdqkk23m7SoPWLQ8Wu/+EBtYdtzLx6P2ROq6wcH1Hb7gmDaXtEXQul8AAAAAAAA6STps+MhAWa2u+UtuvCtD4O9nQAAGAmYHQ8AAADx0BMKAAAAAAAAKUcQCgAAAAAAAClHOh4AAEga0vEAAAAQDz2hAAAAAAAAkHL0hAIAAElDT6jhoFKPPH6LCpy15g+36tX9/loAAIBUIwgFAACShiDUMDJzqZ6oHK9Tm3dqn60CAABIJdLxAAAARqPjF9TY7VHeTFsGAABIMYJQAAAAAAAASDmCUAAAAAAAAEg5glAAAACj0gm1+jJVVDbDlgEAAFKLgckBAEDSMDD58LNo5SrNzO/W+eo3tOO4rQQAAEiBgQehCiu04s5i1b5XpaNNts7hLavUvTO8/kJdjbafaPCvAwCAEY8g1HAyQ/c/Ok/eM1v16n5bBQAAkEIDSsczgSYTgOrBM1XzZ3jdwNT2t2vVVFahe8psQGoEmbd8lZ5es1pPr16mebYOAABg+OmWr9muAgAApFi/g1ARPZ2ieItKVSifOjqdQmejzrdIhROLNNLCUId2btVzm7aoxleqBcsrbC0AAAAAAADiGVBPKNPT6a0TPlsK8WabcFOH2kwQSj61tTk/8nNGXBAqYG99q7K8pB0AAAAAAAD0pd9BKF9ddcQYUAAAABiGZk5SUWanWhmMHAAADJIB9YQCAADAcFWpRx5fpScrS6SLtdpnawEAAFItqUEoX4dJ0ctWrseUvMrNdX60tKtn4t4I0dSprvwSLbFFAACA9FetVzdv1QvO8uKuE7YOAAAg9ZIbhGq8pCZ5le0GobKVnS81XWwcuUGoY7u08d1O3Wpmynv4blsJAAAAAACAaMlNx+s8q7ffa1D5nYu14r4KldfV6O26ERuCkj6xUk/Plw5s2qLnXn/HVgIAAAAAACDamIJb59+w6+gvE4QqqScABQCA5clh1lgAAADExsDkAAAAAAAASDmCUAAAAAAAAEg5glA3YUlJnrp8rbYEAAAAAACAeAhCDcC85av09JrVqshv1Uc7a2wtAAAAAAAA4mFgcgAAkDQMTA4AAIB4CEIBAICkIQiVenOXPaS7J2ZK3fV655U9OmzrAQAA0h1BKAAAkDQEoQbPopWrdEvnIb2464StAQAASG+MCQUAADAM7WtoVZYn15YAAADSH0EoAAAAAAAApBxBKAAAAAAAAKQcQSgAAIDhqPmKuvKLtMgWAQAA0h0DkwMAgKRhYPJBNnOpnqgsUVbLKb2wrdpWAgAApKeb6gnlLavUivsqVe6xFUHFmn3fYq2YUWzLAAAASKqFy/XkPOng5q0EoAAAwLAw4CBU0YzFuneG15bCeKbqnvsqVG6L6edufWbNaj3tLJ/5hK0CAAAYjnztOmxXAQAA0t2AglAmALWwzBbCmQDUPeUqtMX09I5e3rRFz717Sd7bV2qJrQUAAAAAAEDqDLAnlE9H367S/jpbDFdXo+1v16rJFtPWsXNq7PYof5YtAwAAAAAAIGUGFIRqPFGt2k5bCNd5Vm+faLAFAAAApMqi4jx1dbbZEgAAQPq7qYHJAQAAMLjmLntITz6+SjPzW3Vq1wlbCwAAkP5GcRCqRi2+TBVNrbBlAACA9Hd41xt6wcyIt3mn9tk6AACA4WBU94Ta+/oWfeS9U0+vWaUHGBsKAAAAAAAgZUZxEKpCD6xerUn1W/Tcpq365TFbDQAAAAAAgKQbU3Dr/Bt2fZQxQag50kECUAAAJIsnJ8+uAQAAAJEYmBwAAAAAAAApRxAKAAAAAAAAKTd6g1Czpqgos1MtpOIBAAAAAACk3CgMQt2tz6xZrafvKpUufKi9thYAAAAAAACpM4oHJgcAAMnGwOQAAACIhyAUAABIGoJQfanUI4/fogJnrfnDrXp1v78WAABgNCAIBQAAkoYgVIJmLtUTleN1avNO7bNVAAAAIx2z4wEAAAy24xfU2O1R3kxbBgAAGAUIQgEAAAAAACDlCEIBAAAAAAAg5QhCAQAADLoTavVlqqhshi0DAACMfAxMDgAAkoaByftn0cpVmpnfrfPVb2jHcVsJAAAwQg08CFVYoRV3Fqv2vSodbbJ1jqIZi7WwzBbUoP27a9RoSwAAYGQjCJWoGbr/0XnyntmqV/fbKgAAgBFuQOl43rJKNwDVQ2GFG4Aygantu6t1tKVYC2fEeN1NmLd8lZ5es1pPr16mebYOAABg+OmWr9muAgAAjAL9DkKZANS9M7y2FKWpRtt3B3pG+dTW5vwoK1aRKSbJoZ1b9dymLarxlWrB8gpbCwAAAAAAgHQ2oJ5QpqfTWyd8thSHZ6pmmLS8lnb18coB2VvfqiwvXf4BAAAAAACGg34HoXx11RFjQMVWrNn3lKvQWWu62JiSIBQAAMCwNXOSijI71cpg5AAAYBQZUE+o3nlVXlmhcrPaUquDdYSgAAAA/Cr1yOOr9GRliXSxVvtsLQAAwGiQ9CBU0YxKzc43aw3aX302db2gmjrVlV+iJbYIAACQ/qr16uatesFZXtx1wtYBAACMDskNQtnZ8cyg5EffrlGjW5kix3Zp47udutXMlPfw3bYSAAAAAAAA6SipQaiikmK75tXsexZrxX1mqUjq7HhBn1ipp+dLBzZt0XOvv2MrAQAAAAAAkI7GFNw6/4ZdH15MEKqkngAUAABpxJPDzLUAAACILQUDkwMAAAAAAACRCEIBAAAAAAAg5YZtEGpJSZ66fK22BAAAAAAAgHQ27IJQ85av0tNrVqsiv1Uf7ayxtQAAAAAAAEhnw3dgcgAAkHYYmBwAAADxMCYUAAAAAAAAUo6eUAAAIGlGek+oucse0t0TM6Xuer3zyh4dtvUAAADoG0EoAACQNKMlHW/RylW6pfOQXtx1wtYAAACgL6TjAQAA9NO+hlZleXJtCQAAAIkgCAUAAAAAAICUIwgFAAAAAACAlCMIBQAA0F/NV9SVX6RFtggAAIC+MTA5AABImtEyMLlr5lI9UVmirJZTemFbta0EAABAPAMPQhVWaMWdxap9r0pHm2ydo2jGYi0ss4WWWr1VfVY+WwQAACPbqAlCLVyuJ6dd0Tuv7NFhWwUAAIDeDSgdz1tW6QageiiscANQJjC1/e1aNeWXa36Z125MjnnLV+npNav19OplmmfrAAAABp2vnQAUAABAP/Q7CGUCUPfOiBNYaqrR9t2RPaOS7dDOrXpu0xbV+Eq1YHmFrQUAAAAAAEA6G1BPKNPT6a0TvSTZmVS9e8rV4rzu7brUJOPtrW9VlncUjTsBAAAAAAAwjPU7COWrq+67p5PbI6pGunOxVsyIkbYHAAAwjC0qzlNXZ5stAQAAIBED6gmVmAZdrHN+lBWryF8BAAAwrM1d9pCefHyVZua36tSuE7YWAAAAiUhhEMqr3FznR0t7ambHa+pUV36JltgiAABAqh3e9YZe2LzVWXZqn60DAABAYpIahHJnzbuvUuUep+Ap0uR8qeliY2qCUMd2aeO7nbrVzJT38N22EgAAAAAAAOkoqUEoX90xHW3xavY9i92ByQvralI2MLk+sVJPz5cObNqi515/x1YCAAAAAAAgHY0puHX+Dbs+vJggVEk9ASgAANKIJ4eZawEAABBbCseEAgAAAAAAAPwIQgEAAAAAACDlhm0QaklJnrp8rbYEAAAAAACAdDbsglDzlq/S02tWqyK/VR/trLG1AAAAAAAASGfDd2ByAACQdhiYHAAAAPEwJhQAAAAAAABSjiAUAAAAAAAAUo4gFAAAAAAAAFKOIBQAAAAAAABSjiAUAAAAAAAAUo4gFAAAAAAAAFKOIBQAAAAAAABSTPr/AxQtzkVzSvfzAAAAAElFTkSuQmCC;" vertex="1" parent="i4hqYP4whVOMsoO-DvEu-35">
          <mxGeometry y="405.99992675781255" width="1185" height="313" as="geometry" />
        </mxCell>
        <mxCell id="i4hqYP4whVOMsoO-DvEu-33" style="edgeStyle=orthogonalEdgeStyle;rounded=0;orthogonalLoop=1;jettySize=auto;html=1;exitX=0.25;exitY=0;exitDx=0;exitDy=0;entryX=0;entryY=0;entryDx=0;entryDy=110;entryPerimeter=0;strokeColor=#0DA2D3;" edge="1" parent="i4hqYP4whVOMsoO-DvEu-35" source="i4hqYP4whVOMsoO-DvEu-32" target="i4hqYP4whVOMsoO-DvEu-11">
          <mxGeometry relative="1" as="geometry" />
        </mxCell>
        <mxCell id="i4hqYP4whVOMsoO-DvEu-34" style="edgeStyle=orthogonalEdgeStyle;rounded=0;orthogonalLoop=1;jettySize=auto;html=1;exitX=0.5;exitY=1;exitDx=0;exitDy=0;exitPerimeter=0;entryX=0.671;entryY=0.016;entryDx=0;entryDy=0;entryPerimeter=0;strokeColor=#0DA2D3;" edge="1" parent="i4hqYP4whVOMsoO-DvEu-35" source="i4hqYP4whVOMsoO-DvEu-11" target="i4hqYP4whVOMsoO-DvEu-32">
          <mxGeometry relative="1" as="geometry" />
        </mxCell>
      </root>
    </mxGraphModel>
  </diagram>
</mxfile>
